<?xml version="1.0" encoding="UTF-8"?><svg id="Layer_1" xmlns="http://www.w3.org/2000/svg" viewBox="0 0 1000 547.43"><defs><style>.cls-1{fill:#508cb7;}.cls-2{font-family:Helvetica-Bold, Helvetica;font-size:37.61px;font-weight:700;}.cls-2,.cls-3,.cls-4{fill:#69c0dd;}.cls-5{fill:#2c4363;}.cls-6{stroke:#69c0dd;stroke-width:5.99px;}.cls-6,.cls-7,.cls-8,.cls-3,.cls-9{stroke-miterlimit:10;}.cls-6,.cls-10{fill:#243f66;}.cls-7{stroke:#fafcff;stroke-width:3.74px;}.cls-7,.cls-9{fill:none;stroke-linecap:round;}.cls-8{stroke-width:2.49px;}.cls-8,.cls-3,.cls-9{stroke:#243f66;}.cls-8,.cls-11{fill:#fafcff;}.cls-12{fill:#305080;}.cls-3{stroke-width:3.4px;}.cls-13{fill:#c9dbee;}.cls-9{stroke-width:6.79px;}</style></defs><path class="cls-5" d="M793.69,437.2c0,60.88-131.49,110.23-293.69,110.23-162.2,0-293.69-49.35-293.69-110.23,0-60.88,131.49-110.23,293.69-110.23,162.2,0,293.69,49.35,293.69,110.23Z"/><line class="cls-9" x1="500.33" y1="62.1" x2="500.33" y2="27.63"/><circle class="cls-3" cx="500.33" cy="15.13" r="12.5"/><path class="cls-12" d="M468.46,244.15c0-37.84,14.27-68.51,31.88-68.51s31.88,30.67,31.88,68.51"/><path class="cls-10" d="M533.46,244.15h-2.49c0-37.09-13.74-67.26-30.63-67.26s-30.63,30.17-30.63,67.26h-2.49c0-38.46,14.86-69.76,33.12-69.76s33.12,31.29,33.12,69.76Z"/><path class="cls-4" d="M414.66,154.2l-2.27-36.25-13.34,2.52c-7.01.37-12.39,6.36-12.02,13.37l2.2,41.24c.15,2.73,1.15,5.21,2.73,7.2,8.62-8.26,16.19-17.93,22.69-28.09Z"/><path class="cls-1" d="M391.97,182.29c2.47,3.12,6.36,5.04,10.64,4.81l14.12.25-2.07-33.15c-6.51,10.16-14.07,19.83-22.69,28.09Z"/><path class="cls-10" d="M390.48,175.01l-2.2-41.24c-.34-6.31,4.53-11.73,10.84-12.06l12.12-2.27,2.28,36.54c.77-1.18,1.53-2.36,2.28-3.56l-2.25-35.96-14.65,2.76c-7.65.46-13.52,7.02-13.11,14.68l2.2,41.24c.16,3.04,1.3,5.79,3.07,8,.61-.57,1.21-1.14,1.81-1.72-1.38-1.79-2.26-3.99-2.39-6.41Z"/><path class="cls-10" d="M413.53,155.98l1.88,30.11-12.86-.23c-3.89.23-7.44-1.55-9.67-4.43-.6.58-1.2,1.15-1.81,1.72,2.71,3.37,6.93,5.45,11.53,5.2l15.47.28-2.26-36.21c-.74,1.19-1.5,2.38-2.28,3.56Z"/><path class="cls-1" d="M584.97,187.35l14.12-.25c7.01.37,13-5.01,13.37-12.02l2.2-41.24c.37-7.01-5.01-13-12.02-13.37l-13.34-2.52-4.34,69.41Z"/><path class="cls-10" d="M583.65,188.63l4.51-72.17,14.65,2.76c7.65.46,13.52,7.02,13.11,14.68l-2.2,41.24c-.41,7.69-6.99,13.6-14.69,13.2l-15.39.28ZM590.47,119.43l-4.16,66.65,12.77-.23c6.38.31,11.81-4.52,12.15-10.84l2.2-41.24c.34-6.31-4.53-11.73-10.84-12.06l-.16-.02-11.96-2.25Z"/><path class="cls-11" d="M577.4,87.01c-2.16-2.69-4.58-5.43-7.29-8.14-16.9-16.89-35.7-22.33-43.73-24.55-10.08-2.78-18.83-3.57-25.07-3.74v-.03c-.14,0-.31.01-.46.01-.15,0-.31-.01-.46-.01v.03c-6.25.18-14.99.96-25.07,3.74-8.03,2.22-26.83,7.65-43.73,24.55-14.17,14.16-20.53,29.1-21.64,34.32-4.71,22.12-2.75,40.14-1.12,55.25.11,1.02.23,1.99.36,2.93.46-.09.91-.14,1.34-.14,56.88-17.58,136.9-30.02,166.86-84.23Z"/><path class="cls-13" d="M591.76,113.19c-.9-4.22-5.24-14.8-14.35-26.18-29.96,54.21-109.98,66.65-166.86,84.23-.43,0-.88.05-1.34.14,2.06,15.06,6.45,21.12,9.63,24.28,5.87,5.82,13.42,7.67,21.11,8.25,11.46.87,30.3,1.93,60.17,1.98h0c.25,0,.49,0,.74,0,.25,0,.49,0,.74,0h0c29.87-.05,48.71-1.11,60.17-1.98,7.69-.59,15.25-2.43,21.11-8.25,3.38-3.35,8.12-9.99,9.99-27.21,1.64-15.11,3.59-33.13-1.12-55.25Z"/><path class="cls-10" d="M410.08,168.29c-1.67-15.43-3.57-32.92,1.1-54.85.87-4.09,6.65-19.05,21.3-33.7,17.01-17,36.02-22.25,43.18-24.22,8.04-2.22,16.37-3.46,24.78-3.7l.3-.02.55.02c8.4.24,16.74,1.48,24.78,3.7,7.16,1.98,26.17,7.22,43.18,24.22,2.82,2.82,5.31,5.65,7.5,8.42.44-.77.87-1.56,1.3-2.35-2.12-2.62-4.46-5.26-7.03-7.83-17.47-17.47-36.95-22.84-44.28-24.87-7.85-2.17-15.97-3.43-24.16-3.75v-.09l-1.68.03h-.46s-1.27,0-1.27,0v.06c-8.19.32-16.31,1.58-24.16,3.75-7.33,2.02-26.81,7.4-44.28,24.87-13.46,13.45-20.62,28.57-21.98,34.94-4.75,22.31-2.74,40.79-1.14,55.65.12,1.08.25,2.11.38,3.11.86-.27,1.69-.44,2.46-.45-.13-.95-.25-1.92-.36-2.94Z"/><path class="cls-10" d="M592.97,112.93c-1.1-5.15-5.99-16.02-14.94-27.11-.42.79-.85,1.58-1.3,2.35,9.19,11.59,13.1,21.98,13.8,25.28,4.66,21.92,2.77,39.41,1.1,54.86-2.05,18.94-7.75,24.6-9.63,26.46-4.79,4.76-11.06,7.19-20.33,7.9-16.94,1.29-36.59,1.93-60.08,1.97h-.39s-1.1,0-1.1,0c-23.49-.04-43.14-.68-60.08-1.97-9.27-.7-15.54-3.14-20.33-7.9-1.77-1.76-6.97-6.93-9.26-23.53-.77.01-1.6.18-2.46.45,2.13,15.45,6.66,21.57,9.96,24.85,6.79,6.74,15.75,8.15,21.9,8.61,16.7,1.27,36.02,1.92,59.02,1.98h2.73s1.25,0,1.25,0h0c23-.06,42.32-.71,59.02-1.98,6.15-.47,15.1-1.87,21.9-8.61,3.52-3.49,8.42-10.2,10.35-27.98,1.61-14.85,3.61-33.32-1.14-55.63Z"/><path class="cls-12" d="M551.64,417.43v-6.24c3.23-1.55,5.23-3.67,5.23-6.02s-2-4.47-5.23-6.02v-22.73h-26v22.75c-3.2,1.55-5.18,3.66-5.18,5.99s1.98,4.44,5.18,5.99v6.3c-3.2,1.55-5.18,3.66-5.18,5.99s1.98,4.44,5.18,5.99v22.73h26v-22.7c3.23-1.55,5.23-3.67,5.23-6.02s-2-4.47-5.23-6.02Z"/><path class="cls-10" d="M552.88,453.42h-28.49v-23.21c-3.35-1.8-5.18-4.18-5.18-6.75s1.83-4.96,5.18-6.76v-4.77c-3.35-1.8-5.18-4.18-5.18-6.75s1.83-4.96,5.18-6.76v-23.24h28.49v23.21c3.38,1.8,5.23,4.19,5.23,6.79s-1.85,4.98-5.23,6.78v4.71c3.38,1.8,5.23,4.19,5.23,6.79s-1.85,4.98-5.23,6.79v23.18ZM526.88,450.92h23.5v-22.24l.71-.34c2.88-1.38,4.52-3.16,4.52-4.89s-1.65-3.52-4.52-4.89l-.71-.34v-7.82l.71-.34c2.88-1.38,4.52-3.16,4.52-4.89s-1.65-3.52-4.52-4.89l-.71-.34v-22.27h-23.5v22.29l-.7.34c-2.84,1.37-4.47,3.15-4.47,4.87s1.63,3.49,4.47,4.87l.7.34v7.86l-.7.34c-2.84,1.37-4.47,3.15-4.47,4.87s1.63,3.49,4.47,4.87l.7.34v22.26Z"/><path class="cls-12" d="M525.63,411.24v6.21c-3.2,1.55-5.18,3.66-5.18,6,0,4.74,8.15,8.58,18.2,8.58s18.2-3.84,18.2-8.58c0-2.37-2.04-4.52-5.33-6.07v-6.19"/><path class="cls-10" d="M538.66,433.28c-10.91,0-19.45-4.32-19.45-9.83,0-2.58,1.83-4.96,5.18-6.76v-5.45h2.49v7l-.7.34c-2.84,1.37-4.47,3.15-4.47,4.87,0,3.47,6.96,7.34,16.96,7.34s16.96-3.87,16.96-7.34c0-1.76-1.68-3.56-4.62-4.94l-.72-.34v-6.98h2.49v5.42c3.45,1.81,5.33,4.22,5.33,6.84,0,5.51-8.54,9.83-19.45,9.83Z"/><path class="cls-12" d="M551.64,392l-.1,7.1c3.29,1.55,5.33,3.7,5.33,6.07,0,4.74-8.15,8.58-18.2,8.58-5.03,0-9.58-.96-12.87-2.51-3.29-1.55-5.33-3.7-5.33-6.07s1.97-4.45,5.18-6v-16.94"/><path class="cls-10" d="M538.66,415c-5.04,0-9.8-.94-13.4-2.63-3.9-1.84-6.05-4.39-6.05-7.2,0-2.58,1.83-4.96,5.18-6.76v-16.18h2.5v17.73s-.71.34-.71.34c-2.84,1.37-4.47,3.15-4.47,4.87s1.68,3.56,4.62,4.94c3.28,1.54,7.66,2.39,12.34,2.39,9.99,0,16.96-3.87,16.96-7.34,0-1.76-1.68-3.56-4.62-4.94l-.73-.34.11-7.91,2.49.03-.09,6.32c3.44,1.81,5.32,4.21,5.32,6.84,0,5.51-8.54,9.83-19.45,9.83Z"/><path class="cls-8" d="M561.72,465.93c2.25,0,3.95-2.18,3.25-4.32-2.75-8.39-13.34-14.65-25.98-14.65s-23.23,6.25-25.98,14.65c-.7,2.14,1,4.32,3.25,4.32h45.46Z"/><path class="cls-12" d="M475.37,417.43v-6.24c3.23-1.55,5.23-3.67,5.23-6.02s-2-4.47-5.23-6.02v-22.73h-26v22.75c-3.2,1.55-5.18,3.66-5.18,5.99s1.98,4.44,5.18,5.99v6.3c-3.2,1.55-5.18,3.66-5.18,5.99s1.98,4.44,5.18,5.99v22.73h26v-22.7c3.23-1.55,5.23-3.67,5.23-6.02s-2-4.47-5.23-6.02Z"/><path class="cls-10" d="M476.62,453.42h-28.49v-23.21c-3.35-1.8-5.18-4.18-5.18-6.75s1.83-4.96,5.18-6.76v-4.77c-3.35-1.8-5.18-4.18-5.18-6.75s1.83-4.96,5.18-6.76v-23.24h28.49v23.21c3.38,1.8,5.23,4.19,5.23,6.79s-1.85,4.98-5.23,6.78v4.71c3.38,1.8,5.23,4.19,5.23,6.79s-1.85,4.98-5.23,6.79v23.18ZM450.62,450.92h23.5v-22.24l.71-.34c2.88-1.38,4.52-3.16,4.52-4.89s-1.65-3.52-4.52-4.89l-.71-.34v-7.82l.71-.34c2.88-1.38,4.52-3.16,4.52-4.89s-1.65-3.52-4.52-4.89l-.71-.34v-22.27h-23.5v22.29l-.7.34c-2.84,1.37-4.47,3.15-4.47,4.87s1.63,3.49,4.47,4.87l.7.34v7.86l-.7.34c-2.84,1.37-4.47,3.15-4.47,4.87s1.63,3.49,4.47,4.87l.7.34v22.26Z"/><path class="cls-12" d="M449.37,411.24v6.21c-3.2,1.55-5.18,3.66-5.18,6,0,4.74,8.15,8.58,18.2,8.58s18.2-3.84,18.2-8.58c0-2.37-2.04-4.52-5.33-6.07v-6.19"/><path class="cls-10" d="M462.4,433.28c-10.91,0-19.45-4.32-19.45-9.83,0-2.58,1.83-4.96,5.18-6.76v-5.45h2.49v7l-.7.34c-2.84,1.37-4.47,3.15-4.47,4.87,0,3.47,6.96,7.34,16.96,7.34s16.96-3.87,16.96-7.34c0-1.76-1.68-3.56-4.62-4.94l-.72-.34v-6.98h2.49v5.42c3.45,1.81,5.33,4.22,5.33,6.84,0,5.51-8.54,9.83-19.45,9.83Z"/><path class="cls-12" d="M475.37,392l-.1,7.1c3.29,1.55,5.33,3.7,5.33,6.07,0,4.74-8.15,8.58-18.2,8.58-5.03,0-9.58-.96-12.87-2.51-3.29-1.55-5.33-3.7-5.33-6.07s1.97-4.45,5.18-6v-16.94"/><path class="cls-10" d="M462.4,415c-5.04,0-9.8-.94-13.4-2.63-3.9-1.84-6.05-4.39-6.05-7.2,0-2.58,1.83-4.96,5.18-6.76v-16.18h2.5v17.73s-.71.34-.71.34c-2.84,1.37-4.47,3.15-4.47,4.87s1.68,3.56,4.62,4.94c3.28,1.54,7.66,2.39,12.34,2.39,9.99,0,16.96-3.87,16.96-7.34,0-1.76-1.68-3.56-4.62-4.94l-.73-.34.11-7.91,2.49.03-.09,6.32c3.44,1.81,5.32,4.21,5.32,6.84,0,5.51-8.54,9.83-19.45,9.83Z"/><path class="cls-8" d="M485.13,465.93c2.25,0,3.95-2.18,3.25-4.32-2.75-8.39-13.34-14.65-25.98-14.65s-23.23,6.25-25.98,14.65c-.7,2.14,1,4.32,3.25,4.32h45.46Z"/><path class="cls-1" d="M390.22,267.2l.06,24.16c.02,7.02,7.26,12.7,16.18,12.68l17.9.97-.14-10.16c-13.16-5.43-24.15-16.22-34-27.63Z"/><path class="cls-4" d="M406.3,237.3c-8.92.02-16.14,5.73-16.12,12.75l.04,17.15c9.85,11.41,20.84,22.2,34,27.63l-.82-59.37-17.09,1.84Z"/><path class="cls-10" d="M423.1,303.68l-16.64-.9h-.05c-8.2,0-14.87-5.12-14.89-11.43l-.05-22.72c-.84-.96-1.68-1.92-2.5-2.89l.06,25.62c.02,7.68,7.81,13.92,17.31,13.92h.05l19.23,1.04-.15-10.98c-.85-.32-1.68-.67-2.51-1.04l.13,9.38Z"/><path class="cls-10" d="M406.23,236.06c-4.57.02-8.87,1.45-12.12,4.02-3.35,2.65-5.19,6.2-5.18,9.98l.04,15.68c.83.97,1.66,1.93,2.5,2.89l-.04-18.58c0-3.01,1.5-5.85,4.24-8.02,2.83-2.24,6.61-3.47,10.64-3.48l15.86-1.7.8,57.45c.83.37,1.66.71,2.51,1.04l-.85-61.26-18.39,1.98Z"/><path class="cls-4" d="M611.53,251.28v-1.23c.02-7.02-7.2-12.73-16.12-12.75l-17.09-1.84-.54,39.24c2.88-1.62,5.77-3.27,8.65-4.94,9.21-5.26,17.03-11.91,25.11-18.49Z"/><path class="cls-1" d="M586.41,269.77c-2.88,1.67-5.76,3.32-8.65,4.94l-.42,30.29,17.9-.97c8.92.02,16.17-5.65,16.18-12.68l.09-40.08c-8.08,6.57-15.9,13.22-25.11,18.49Z"/><path class="cls-10" d="M610.28,252.3l-.09,39.06c-.01,6.31-6.69,11.44-14.96,11.44-.01,0-.03,0-.04,0l-16.57.89.41-29.69c-.84.47-1.68.95-2.51,1.42l-.43,30.91,19.16-1.03h.05c9.57,0,17.36-6.24,17.38-13.92l.1-41.09c-.84.68-1.67,1.35-2.5,2.03Z"/><path class="cls-10" d="M579.54,236.85l15.73,1.69h.13c4.04.02,7.82,1.25,10.64,3.49,2.74,2.17,4.24,5.01,4.24,8.02v2.24c.83-.68,1.66-1.35,2.49-2.03v-.21c0-3.79-1.83-7.33-5.18-9.98-3.25-2.57-7.55-4-12.12-4.02l-18.39-1.98-.57,41.33c.84-.47,1.68-.94,2.51-1.42l.51-37.14Z"/><path class="cls-11" d="M452.66,381.07c.54.32,1.1.64,1.66.96h2.37c-1.08-.54-2.47-.84-4.04-.96Z"/><path class="cls-13" d="M593.1,273.91c-1.24-12.9-2.02-20.89-6.82-29.97-.75,2.49,2.63,6.05,2.63,9.61-2.49,17.46-7.48,36.17-14.97,49.89-7.48,16.21-17.46,44.9-39.91,57.38-24.46,13.98-50.01,23.6-78.69,21.76.24.13.48.26.72.4,3.28,1.75,9.68,4.91,18.32,7.38,2.24.64,6.98,1.9,13.19,2.77,4.75.66,9.03.9,12.69.94h0c.19,0,.39,0,.59,0,.19,0,.4,0,.59,0h0c3.67-.04,7.95-.28,12.69-.94,6.21-.86,10.96-2.13,13.19-2.77,8.64-2.47,15.04-5.63,18.32-7.38,10.03-5.35,16.88-11.41,20.37-14.78,8.53-8.22,13.35-16.09,15.06-19.02,3.75-6.44,6.04-12.22,7.31-16.26,2.74-8.67,3.01-9.69,4.3-25.56.88-10.86,1.66-20.47.41-33.45Z"/><path class="cls-11" d="M534.03,360.82c22.45-12.47,32.43-41.16,39.91-57.38,7.48-13.72,12.47-32.43,14.97-49.89,0-3.56-3.38-7.12-2.63-9.61-.13-.24-.24-.47-.37-.71-2.25-4.1-6.77-12.12-15.83-17.64-7.13-4.34-13.71-5.09-27.33-5.86-11.21-.63-25.27-1.16-41.61-1.17h0c-.1,0-.19,0-.29,0s-.19,0-.29,0h0c-16.33.01-30.39.55-41.61,1.18-13.62.77-20.2,1.51-27.33,5.86-9.06,5.52-13.58,13.54-15.83,17.64-5.15,9.38-5.92,17.44-7.19,30.68-1.25,12.98-.47,22.59.41,33.45,1.28,15.86,1.56,16.89,4.3,25.56,1.28,4.04,3.56,9.82,7.31,16.26,1.71,2.94,6.53,10.8,15.06,19.02,3.08,2.97,8.78,8.04,16.97,12.87,1.57.12,2.95.42,4.04.96h-2.37c.33.19.68.37,1.02.56,28.67,1.84,54.22-7.79,78.69-21.76Z"/><path class="cls-10" d="M456.65,381.88c-7.39-3.95-14.15-8.85-20.1-14.58-7.39-7.12-12.15-14.13-14.84-18.75-3.88-6.65-6.06-12.38-7.2-16.01-2.67-8.46-2.95-9.34-4.24-25.28-.88-10.92-1.65-20.36-.41-33.23,1.26-13.12,2.02-21.04,7.04-30.2,2.09-3.8,6.43-11.72,15.39-17.17,6.86-4.18,13.1-4.91,26.75-5.68,13.63-.77,27.61-1.16,41.54-1.17h.57c13.92.01,27.9.41,41.54,1.17,13.65.77,19.89,1.5,26.75,5.68,8.95,5.45,13.3,13.37,15.38,17.17,1.86,3.38,3.13,6.6,4.06,9.96.01-.08.03-.16.04-.24,0-3.74-3.74-7.48-2.49-9.98.08-.51.17-1.03.25-1.55-2.18-3.95-6.9-11.99-15.94-17.49-7.31-4.46-14.12-5.26-27.91-6.04-13.68-.77-27.7-1.17-41.68-1.18h-.57c-13.97.01-27.99.41-41.67,1.18-13.79.77-20.6,1.58-27.91,6.04-9.52,5.8-14.25,14.42-16.27,18.1-5.27,9.6-6.05,17.72-7.34,31.16-1.26,13.09-.48,22.63.41,33.67,1.28,15.77,1.57,17.03,4.35,25.83,1.19,3.75,3.43,9.66,7.43,16.51,2.77,4.76,7.67,11.97,15.27,19.29,4.65,4.48,9.79,8.47,15.33,11.91,2.61-.08,4.91.2,6.54,1.01h-4.85c.19.11.37.22.55.33,2,.18,3.99.31,5.96.38-.57-.29-1.15-.56-1.71-.85Z"/><path class="cls-10" d="M450.16,381.01c.56.35,1.12.68,1.69,1.01h4.85c-1.63-.81-3.93-1.09-6.54-1.01Z"/><path class="cls-10" d="M594.34,273.79h0c-1.29-13.45-2.07-21.56-7.34-31.16-.1-.19-.22-.39-.33-.6-.08.52-.17,1.04-.25,1.55-1.25,2.49,2.49,6.24,2.49,9.98-.01.08-.03.16-.04.24,1.59,5.75,2.19,11.96,2.98,20.23h0c1.24,12.88.47,22.31-.41,33.23-1.29,15.94-1.57,16.82-4.24,25.28-1.15,3.63-3.33,9.35-7.2,16.01-2.69,4.62-7.45,11.63-14.84,18.75-5.94,5.73-12.7,10.63-20.09,14.58-5.66,3.02-11.74,5.47-18.07,7.28-4.18,1.19-8.56,2.11-13.02,2.73-4.13.57-8.35.89-12.53.92h-.31s-.28,0-.28,0h-.16s-.41,0-.41,0c-4.19-.04-8.4-.35-12.53-.92-4.46-.62-8.85-1.54-13.02-2.73-5.71-1.63-11.19-3.81-16.36-6.43-1.97-.07-3.96-.2-5.96-.38,1.01.59,2.04,1.17,3.08,1.72,5.81,3.1,12.06,5.62,18.56,7.48,4.29,1.22,8.79,2.17,13.36,2.8,3.83.53,7.73.85,11.62.93v.02h1.83s.59,0,.59,0h1.25v-.02c3.89-.08,7.79-.4,11.62-.93,4.58-.64,9.08-1.58,13.36-2.8,6.5-1.86,12.75-4.38,18.56-7.48,7.59-4.05,14.54-9.1,20.65-14.98,7.6-7.32,12.5-14.53,15.27-19.29,3.99-6.85,6.24-12.76,7.42-16.51,2.78-8.8,3.07-10.06,4.35-25.83.89-11.04,1.67-20.58.41-33.67Z"/><ellipse class="cls-12" cx="373.67" cy="414.67" rx="7.82" ry="22.08" transform="translate(-96.46 113.74) rotate(-15.35)"/><path class="cls-10" d="M378.72,437.32c-2.3,0-4.79-1.85-7.28-5.42-2.61-3.74-4.92-9.01-6.52-14.83-1.6-5.82-2.3-11.53-1.97-16.08.37-5.05,1.93-8.1,4.53-8.81,2.6-.71,5.5,1.11,8.4,5.26,2.61,3.74,4.92,9.01,6.52,14.83h0c1.6,5.82,2.3,11.53,1.97,16.08-.37,5.05-1.93,8.1-4.53,8.81-.37.1-.74.15-1.12.15ZM368.59,394.52c-.15,0-.3.02-.44.06-1.42.39-2.43,2.85-2.7,6.59-.31,4.28.36,9.69,1.89,15.24,1.53,5.55,3.71,10.55,6.16,14.07,2.14,3.07,4.26,4.66,5.69,4.28,1.42-.39,2.43-2.85,2.7-6.59.31-4.27-.36-9.69-1.89-15.24-1.53-5.55-3.71-10.55-6.16-14.07-1.93-2.77-3.84-4.34-5.24-4.34Z"/><rect class="cls-11" x="370.18" y="267.48" width="13.55" height="39.86" transform="translate(138.09 -122.03) rotate(22.42)"/><path class="cls-10" d="M376.29,310.04l-14.83-6.12,16.15-39.15,14.83,6.12-16.15,39.15ZM364.72,302.57l10.22,4.21,14.25-34.54-10.22-4.21-14.25,34.54Z"/><circle class="cls-12" cx="381.39" cy="266.53" r="12.3"/><path class="cls-10" d="M381.39,280.07c-7.47,0-13.55-6.08-13.55-13.55s6.08-13.55,13.55-13.55,13.55,6.08,13.55,13.55-6.08,13.55-13.55,13.55ZM381.39,255.48c-6.09,0-11.05,4.96-11.05,11.05s4.96,11.05,11.05,11.05,11.05-4.96,11.05-11.05-4.96-11.05-11.05-11.05Z"/><circle class="cls-12" cx="367.69" cy="387.55" r="15.32"/><path class="cls-10" d="M367.69,404.12c-9.14,0-16.57-7.43-16.57-16.57s7.43-16.57,16.57-16.57,16.57,7.43,16.57,16.57-7.43,16.57-16.57,16.57ZM367.69,373.48c-7.76,0-14.07,6.31-14.07,14.07s6.31,14.07,14.07,14.07,14.08-6.31,14.08-14.07-6.31-14.07-14.08-14.07Z"/><path class="cls-11" d="M384.47,325.7c-1.28-2.96-2.76-5.61-4.41-7.85h-27.01c-5.84,7.94-9.64,20.84-9.64,35.41,0,10.68,2.05,20.45,5.44,28.04,6.26-21.33,18.81-41.46,35.63-55.61Z"/><path class="cls-13" d="M384.47,325.7c-16.81,14.15-29.36,34.28-35.63,55.61,1.24,2.77,2.64,5.25,4.2,7.37h27.01c5.84-7.94,9.64-20.84,9.64-35.41,0-10.46-1.96-20.04-5.23-27.56Z"/><path class="cls-10" d="M344.66,353.27c0-13.43,3.37-26.13,9.03-34.17h25.73c1.53,2.16,2.88,4.68,4.05,7.44.66-.57,1.32-1.12,1.99-1.67-1.27-2.89-2.74-5.51-4.39-7.76l-.37-.5h-28.28s-.37.5-.37.5c-6.19,8.41-9.88,21.93-9.88,36.15,0,11.08,2.25,21.71,6.16,29.85.34-1.23.7-2.46,1.09-3.68-3.03-7.41-4.75-16.6-4.75-26.17Z"/><path class="cls-10" d="M383.47,326.54c3.18,7.5,4.98,16.91,4.98,26.72,0,13.43-3.37,26.13-9.03,34.16h-25.73c-1.63-2.31-3.06-5.01-4.28-7.99-.38,1.22-.75,2.45-1.09,3.68,1.11,2.31,2.35,4.44,3.72,6.3l.37.5h28.28s.37-.5.37-.5c6.19-8.41,9.88-21.93,9.88-36.15,0-10.43-1.99-20.46-5.49-28.4-.67.55-1.33,1.1-1.99,1.67Z"/><circle class="cls-12" cx="366.56" cy="313.19" r="15.1"/><path class="cls-10" d="M366.56,329.54c-9.01,0-16.35-7.33-16.35-16.35s7.33-16.35,16.35-16.35,16.35,7.33,16.35,16.35-7.33,16.35-16.35,16.35ZM366.56,299.34c-7.64,0-13.85,6.21-13.85,13.85s6.21,13.85,13.85,13.85,13.85-6.21,13.85-13.85-6.21-13.85-13.85-13.85Z"/><ellipse class="cls-12" cx="351.46" cy="409.63" rx="7.82" ry="22.08" transform="translate(-63.23 64.15) rotate(-9.57)"/><path class="cls-10" d="M354.63,432.7c-5.51,0-10.31-10.86-12.11-21.56-1.88-11.15-.75-23.53,5.06-24.51,5.81-.98,10.94,10.35,12.82,21.5h0c1,5.95,1.12,11.71.34,16.2-.87,4.99-2.74,7.86-5.4,8.31-.24.04-.47.06-.7.06ZM348.27,389.06c-.09,0-.19,0-.28.02-3.06.52-5,9.88-3.01,21.64,1.98,11.76,6.89,19.97,9.94,19.45,1.45-.24,2.71-2.59,3.35-6.28.74-4.22.62-9.68-.34-15.36h0c-1.92-11.41-6.6-19.48-9.67-19.48Z"/><ellipse class="cls-12" cx="393.38" cy="403.99" rx="7.82" ry="22.08" transform="translate(-136.65 211.57) rotate(-25.81)"/><path class="cls-10" d="M401.65,425.42c-2.1,0-4.59-1.38-7.32-4.08-3.24-3.21-6.48-7.97-9.11-13.4-2.63-5.44-4.35-10.92-4.85-15.46-.56-5.03.43-8.32,2.86-9.49,5.3-2.56,13.39,6.87,18.32,17.06h0c2.63,5.44,4.35,10.93,4.85,15.46.56,5.04-.43,8.32-2.86,9.49-.59.29-1.22.43-1.89.43ZM385.14,385.06c-.31,0-.58.06-.83.18-1.33.64-1.88,3.25-1.46,6.97.47,4.26,2.11,9.46,4.62,14.65,2.51,5.19,5.57,9.7,8.61,12.72,2.66,2.63,5.04,3.82,6.37,3.18,1.33-.64,1.88-3.25,1.46-6.97-.47-4.26-2.11-9.46-4.62-14.65-4.74-9.79-10.98-16.07-14.16-16.07Z"/><ellipse class="cls-12" cx="626.33" cy="414.67" rx="22.08" ry="7.82" transform="translate(60.62 908.85) rotate(-74.65)"/><path class="cls-10" d="M621.28,437.32c-.38,0-.75-.05-1.12-.15-2.6-.71-4.17-3.76-4.53-8.81-.33-4.55.37-10.26,1.97-16.08h0c1.6-5.82,3.91-11.09,6.52-14.83,2.89-4.16,5.8-5.98,8.4-5.26,2.6.71,4.17,3.76,4.53,8.81.33,4.55-.37,10.26-1.97,16.08s-3.91,11.09-6.52,14.83c-2.48,3.57-4.98,5.42-7.27,5.42ZM620,412.93c-1.53,5.56-2.19,10.97-1.89,15.24.27,3.73,1.28,6.2,2.7,6.59,1.42.38,3.55-1.21,5.69-4.28,2.45-3.52,4.64-8.51,6.16-14.07s2.19-10.97,1.89-15.24c-.27-3.73-1.28-6.2-2.7-6.59-1.42-.38-3.55,1.21-5.69,4.28-2.45,3.52-4.64,8.51-6.16,14.07h0Z"/><rect class="cls-11" x="616.28" y="267.48" width="13.55" height="39.86" transform="translate(1308.62 315.5) rotate(157.58)"/><path class="cls-10" d="M623.71,310.04l-16.15-39.15,14.83-6.12,16.15,39.15-14.83,6.12ZM610.82,272.25l14.25,34.54,10.22-4.21-14.25-34.54-10.22,4.21Z"/><circle class="cls-12" cx="618.61" cy="266.53" r="12.3"/><path class="cls-10" d="M618.61,280.07c-7.47,0-13.55-6.08-13.55-13.55s6.08-13.55,13.55-13.55,13.55,6.08,13.55,13.55-6.08,13.55-13.55,13.55ZM618.61,255.48c-6.09,0-11.05,4.96-11.05,11.05s4.96,11.05,11.05,11.05,11.05-4.96,11.05-11.05-4.96-11.05-11.05-11.05Z"/><circle class="cls-12" cx="632.31" cy="387.55" r="15.32"/><path class="cls-10" d="M632.31,404.12c-9.14,0-16.57-7.43-16.57-16.57s7.43-16.57,16.57-16.57,16.57,7.43,16.57,16.57-7.43,16.57-16.57,16.57ZM632.31,373.48c-7.76,0-14.07,6.31-14.07,14.07s6.31,14.07,14.07,14.07,14.07-6.31,14.07-14.07-6.31-14.07-14.07-14.07Z"/><path class="cls-13" d="M655.71,341.38c-6.87,18.61-21.7,34.86-37.62,44.48.59.99,1.21,1.94,1.85,2.81h27.01c5.84-7.94,9.64-20.84,9.64-35.41,0-4.12-.31-8.1-.88-11.88Z"/><path class="cls-11" d="M655.71,341.38c-1.44-9.58-4.57-17.84-8.76-23.53h-27.01c-5.84,7.94-9.64,20.84-9.64,35.41,0,12.96,3.01,24.6,7.79,32.6,15.92-9.62,30.75-25.88,37.62-44.48Z"/><path class="cls-10" d="M611.54,353.27c0-13.43,3.37-26.13,9.03-34.17h25.73c4.31,6.11,7.28,14.91,8.46,24.69.65-1.59,1.25-3.19,1.78-4.82-1.58-8.65-4.55-16.35-8.6-21.86l-.37-.5h-28.28s-.37.5-.37.5c-6.19,8.41-9.88,21.93-9.88,36.15,0,12.69,2.94,24.79,7.97,33.23.71-.42,1.43-.84,2.14-1.29-4.8-8.05-7.61-19.69-7.61-31.95Z"/><path class="cls-10" d="M654.77,343.79c.37,3.08.57,6.26.57,9.48,0,13.43-3.37,26.13-9.03,34.16h-25.73c-.49-.7-.96-1.45-1.42-2.22-.71.44-1.42.87-2.14,1.29.61,1.02,1.24,2.01,1.91,2.92l.37.5h28.28s.37-.5.37-.5c6.19-8.41,9.88-21.93,9.88-36.15,0-4.91-.45-9.73-1.28-14.3-.53,1.62-1.13,3.23-1.78,4.82Z"/><circle class="cls-12" cx="633.44" cy="313.19" r="15.1"/><path class="cls-10" d="M633.44,329.54c-9.01,0-16.35-7.33-16.35-16.35s7.33-16.35,16.35-16.35,16.35,7.33,16.35,16.35-7.33,16.35-16.35,16.35ZM633.44,299.34c-7.64,0-13.85,6.21-13.85,13.85s6.21,13.85,13.85,13.85,13.85-6.21,13.85-13.85-6.21-13.85-13.85-13.85Z"/><ellipse class="cls-12" cx="648.54" cy="409.63" rx="22.08" ry="7.82" transform="translate(136.76 981.02) rotate(-80.43)"/><path class="cls-10" d="M645.36,432.7c-.23,0-.47-.02-.7-.06-2.66-.45-4.52-3.32-5.4-8.31-.79-4.49-.67-10.25.34-16.2h0c1.88-11.15,7.01-22.47,12.82-21.5,5.81.98,6.94,13.36,5.06,24.51-1.8,10.7-6.6,21.56-12.11,21.56ZM642.06,408.54c-.96,5.68-1.08,11.13-.34,15.36.64,3.69,1.9,6.04,3.35,6.28,3.05.54,7.96-7.69,9.94-19.45,1.98-11.76.04-21.12-3.01-21.64-3.04-.51-7.96,7.69-9.94,19.45h0Z"/><ellipse class="cls-12" cx="606.62" cy="403.99" rx="22.08" ry="7.82" transform="translate(-21.18 774.21) rotate(-64.19)"/><path class="cls-10" d="M598.35,425.42c-.67,0-1.31-.14-1.89-.43-2.43-1.17-3.41-4.45-2.86-9.49.5-4.53,2.23-10.02,4.85-15.46h0c4.92-10.18,13.02-19.62,18.32-17.06,2.43,1.17,3.41,4.45,2.86,9.49-.5,4.53-2.23,10.02-4.85,15.46-2.63,5.44-5.86,10.2-9.11,13.4-2.73,2.7-5.22,4.08-7.32,4.08ZM614.86,385.06c-3.18,0-9.42,6.28-14.16,16.07h0c-2.51,5.19-4.15,10.39-4.62,14.65-.41,3.72.14,6.33,1.46,6.97,1.33.65,3.71-.55,6.37-3.18,3.05-3.01,6.11-7.53,8.61-12.72,2.51-5.19,4.15-10.39,4.62-14.65.41-3.72-.14-6.33-1.46-6.97-.24-.12-.52-.18-.83-.18Z"/><path class="cls-11" d="M577.4,87.01c-2.16-2.69-4.58-5.43-7.29-8.14-16.9-16.89-35.7-22.33-43.73-24.55-10.08-2.78-18.83-3.57-25.07-3.74v-.03c-.14,0-.31.01-.46.01-.15,0-.31-.01-.46-.01v.03c-6.25.18-14.99.96-25.07,3.74-8.03,2.22-26.83,7.65-43.73,24.55-14.17,14.16-20.53,29.1-21.64,34.32-4.71,22.12-2.75,40.14-1.12,55.25.11,1.02.23,1.99.36,2.93.46-.09.91-.14,1.34-.14,56.88-17.58,136.9-30.02,166.86-84.23Z"/><path class="cls-13" d="M591.76,113.19c-.9-4.22-5.24-14.8-14.35-26.18-29.96,54.21-109.98,66.65-166.86,84.23-.43,0-.88.05-1.34.14,2.06,15.06,6.45,21.12,9.63,24.28,5.87,5.82,13.42,7.67,21.11,8.25,11.46.87,30.3,1.93,60.17,1.98h0c.25,0,.49,0,.74,0,.25,0,.49,0,.74,0h0c29.87-.05,48.71-1.11,60.17-1.98,7.69-.59,15.25-2.43,21.11-8.25,3.38-3.35,8.12-9.99,9.99-27.21,1.64-15.11,3.59-33.13-1.12-55.25Z"/><path class="cls-10" d="M410.08,168.29c-1.67-15.43-3.57-32.92,1.1-54.85.87-4.09,6.65-19.05,21.3-33.7,17.01-17,36.02-22.25,43.18-24.22,8.04-2.22,16.37-3.46,24.78-3.7l.3-.02.55.02c8.4.24,16.74,1.48,24.78,3.7,7.16,1.98,26.17,7.22,43.18,24.22,2.82,2.82,5.31,5.65,7.5,8.42.44-.77.87-1.56,1.3-2.35-2.12-2.62-4.46-5.26-7.03-7.83-17.47-17.47-36.95-22.84-44.28-24.87-7.85-2.17-15.97-3.43-24.16-3.75v-.09l-1.68.03h-.46s-1.27,0-1.27,0v.06c-8.19.32-16.31,1.58-24.16,3.75-7.33,2.02-26.81,7.4-44.28,24.87-13.46,13.45-20.62,28.57-21.98,34.94-4.75,22.31-2.74,40.79-1.14,55.65.12,1.08.25,2.11.38,3.11.86-.27,1.69-.44,2.46-.45-.13-.95-.25-1.92-.36-2.94Z"/><path class="cls-10" d="M592.97,112.93c-1.1-5.15-5.99-16.02-14.94-27.11-.42.79-.85,1.58-1.3,2.35,9.19,11.59,13.1,21.98,13.8,25.28,4.66,21.92,2.77,39.41,1.1,54.86-2.05,18.94-7.75,24.6-9.63,26.46-4.79,4.76-11.06,7.19-20.33,7.9-16.94,1.29-36.59,1.93-60.08,1.97h-.39s-1.1,0-1.1,0c-23.49-.04-43.14-.68-60.08-1.97-9.27-.7-15.54-3.14-20.33-7.9-1.77-1.76-6.97-6.93-9.26-23.53-.77.01-1.6.18-2.46.45,2.13,15.45,6.66,21.57,9.96,24.85,6.79,6.74,15.75,8.15,21.9,8.61,16.7,1.27,36.02,1.92,59.02,1.98h2.73s1.25,0,1.25,0h0c23-.06,42.32-.71,59.02-1.98,6.15-.47,15.1-1.87,21.9-8.61,3.52-3.49,8.42-10.2,10.35-27.98,1.61-14.85,3.61-33.32-1.14-55.63Z"/><path class="cls-6" d="M570.25,115c-3.63-15.94-10.75-17.63-19.27-17.63s-50.98-.11-50.98-.11c0,0-42.46.11-50.98.11s-15.64,1.69-19.27,17.63c-3.62,15.92,3.04,44.18,6.09,55.67.8,3,3.51,5.08,6.61,5.08h115.09c3.1,0,5.81-2.08,6.61-5.08,3.05-11.5,9.71-39.75,6.09-55.67Z"/><path class="cls-7" d="M515.99,157.42s-6.33,5.82-15.99,5.82c-9.66,0-15.99-5.82-15.99-5.82"/><ellipse class="cls-4" cx="539.81" cy="132.77" rx="9.18" ry="12.86"/><ellipse class="cls-4" cx="464.52" cy="132.77" rx="9.18" ry="12.86"/><ellipse class="cls-11" cx="460.91" cy="129.35" rx="7.28" ry="3.37" transform="translate(241.06 554.59) rotate(-78.34)"/><ellipse class="cls-11" cx="537.07" cy="129.35" rx="7.28" ry="3.37" transform="translate(301.83 629.19) rotate(-78.34)"/><circle class="cls-4" cx="501.95" cy="287.41" r="42.91"/><circle class="cls-11" cx="501.95" cy="287.41" r="22.26"/><text class="cls-2" transform="translate(490.89 300.28) scale(1.06 1)"><tspan x="0" y="0">8</tspan></text></svg>