<?xml version="1.0" encoding="UTF-8"?><svg id="Layer_1" xmlns="http://www.w3.org/2000/svg" viewBox="0 0 1000 930.95"><defs><style>.cls-1{fill:#508cb7;}.cls-2{fill:#2c4363;}.cls-3{stroke:#69c0dd;stroke-width:10.21px;}.cls-3,.cls-4,.cls-5,.cls-6,.cls-7{stroke-miterlimit:10;}.cls-3,.cls-8{fill:#243f66;}.cls-4{stroke:#fafcff;stroke-width:6.37px;}.cls-4,.cls-7{fill:none;stroke-linecap:round;}.cls-5{stroke-width:4.25px;}.cls-5,.cls-6,.cls-7{stroke:#243f66;}.cls-5,.cls-9{fill:#fafcff;}.cls-10{fill:#305080;}.cls-6{stroke-width:5.78px;}.cls-6,.cls-11{fill:#69c0dd;}.cls-12{fill:#c9dbee;}.cls-7{stroke-width:11.57px;}</style></defs><path class="cls-2" d="M1000,743.29c0,103.64-223.86,187.66-500,187.66C223.86,930.95,0,846.93,0,743.29c0-103.64,223.86-187.66,500-187.66,276.14,0,500,84.02,500,187.66Z"/><line class="cls-7" x1="500.57" y1="104.68" x2="500.57" y2="46"/><circle class="cls-6" cx="500.57" cy="24.72" r="21.28"/><path class="cls-10" d="M446.3,414.61c0-64.42,24.3-116.64,54.27-116.64s54.27,52.22,54.27,116.64"/><path class="cls-8" d="M556.96,414.61h-4.25c0-63.14-23.39-114.51-52.15-114.51s-52.15,51.37-52.15,114.51h-4.25c0-65.48,25.3-118.76,56.39-118.76s56.39,53.27,56.39,118.76Z"/><path class="cls-11" d="M354.72,261.48l-3.86-61.72-22.72,4.28c-11.94.64-21.1,10.83-20.46,22.77l3.75,70.22c.25,4.65,1.96,8.87,4.65,12.27,14.68-14.06,27.56-30.52,38.64-47.81Z"/><path class="cls-1" d="M316.08,309.3c4.21,5.31,10.83,8.59,18.12,8.2l24.04.43-3.53-56.44c-11.08,17.29-23.95,33.75-38.64,47.81Z"/><path class="cls-8" d="M313.55,296.91l-3.75-70.21c-.57-10.75,7.7-19.96,18.46-20.54l20.64-3.87,3.89,62.21c1.32-2.01,2.61-4.03,3.88-6.05l-3.82-61.22-24.94,4.7c-13.02.78-23.02,11.96-22.32,25l3.75,70.21c.28,5.17,2.21,9.86,5.23,13.62,1.03-.97,2.07-1.94,3.08-2.93-2.36-3.04-3.85-6.8-4.07-10.92Z"/><path class="cls-8" d="M352.78,264.5l3.2,51.26-21.89-.39c-6.63.38-12.67-2.64-16.46-7.54-1.02.99-2.05,1.96-3.08,2.93,4.62,5.74,11.79,9.28,19.62,8.86l26.34.47-3.85-61.64c-1.27,2.03-2.56,4.05-3.88,6.05Z"/><path class="cls-1" d="M644.67,317.92l24.04-.43c11.94.64,22.13-8.52,22.77-20.46l3.75-70.22c.64-11.94-8.52-22.13-20.46-22.77l-22.72-4.28-7.38,118.16Z"/><path class="cls-8" d="M642.41,320.09l7.68-122.86,24.95,4.7c13.02.78,23.02,11.96,22.32,25l-3.75,70.21c-.7,13.09-11.91,23.15-25,22.47l-26.19.48ZM654.02,202.29l-7.09,113.47,21.74-.39c10.85.52,20.11-7.7,20.69-18.45l3.75-70.21c.57-10.75-7.7-19.96-18.45-20.54l-.28-.04-20.36-3.84Z"/><path class="cls-9" d="M631.78,147.09c-3.67-4.58-7.79-9.24-12.41-13.86-28.77-28.76-60.78-38.02-74.45-41.79-17.16-4.73-32.05-6.08-42.68-6.37v-.05c-.25,0-.53.02-.78.02-.25,0-.53-.02-.78-.02v.05c-10.63.3-25.53,1.64-42.69,6.37-13.67,3.77-45.68,13.03-74.45,41.79-24.12,24.11-34.95,49.55-36.84,58.43-8.01,37.67-4.68,68.34-1.9,94.07.19,1.73.39,3.39.61,4.99.79-.15,1.55-.25,2.29-.25,96.83-29.93,233.07-51.11,284.07-143.39Z"/><path class="cls-12" d="M656.21,191.66c-1.53-7.18-8.91-25.2-24.44-44.57-51,92.29-187.24,113.46-284.07,143.39-.73,0-1.5.09-2.29.25,3.51,25.63,10.98,35.96,16.39,41.34,9.99,9.91,22.85,13.06,35.95,14.05,19.5,1.48,51.59,3.28,102.44,3.36h0c.43,0,.84,0,1.27,0,.43,0,.83,0,1.27,0h0c50.85-.09,82.93-1.89,102.44-3.37,13.1-1,25.96-4.14,35.95-14.05,5.75-5.71,13.83-17.01,17-46.33,2.79-25.72,6.11-56.4-1.9-94.07Z"/><path class="cls-8" d="M346.91,285.48c-2.85-26.27-6.07-56.05,1.87-93.37,1.48-6.96,11.32-32.43,36.27-57.37,28.96-28.95,61.33-37.88,73.51-41.24,13.69-3.78,27.88-5.9,42.18-6.3l.51-.03.93.03c14.3.4,28.49,2.52,42.18,6.3,12.19,3.36,44.56,12.3,73.51,41.24,4.81,4.81,9.04,9.63,12.77,14.34.75-1.32,1.49-2.65,2.21-4-3.61-4.47-7.59-8.95-11.98-13.34-29.75-29.74-62.91-38.89-75.39-42.33-13.36-3.69-27.18-5.83-41.13-6.38v-.15l-2.87.06-.78-.02h-2.16v.12c-13.94.55-27.77,2.69-41.13,6.38-12.48,3.44-45.64,12.59-75.39,42.33-22.91,22.91-35.11,48.65-37.42,59.49-8.08,37.99-4.67,69.44-1.93,94.74.2,1.84.42,3.6.65,5.3,1.47-.46,2.87-.75,4.19-.77-.22-1.61-.43-3.27-.62-5.01Z"/><path class="cls-8" d="M658.29,191.22c-1.87-8.77-10.21-27.28-25.44-46.15-.72,1.35-1.45,2.68-2.21,4,15.64,19.73,22.3,37.42,23.49,43.04,7.94,37.32,4.71,67.1,1.86,93.4-3.49,32.25-13.2,41.89-16.39,45.05-8.16,8.1-18.83,12.24-34.61,13.44-28.84,2.2-62.3,3.29-102.28,3.36h-.66s-1.87,0-1.87,0c-39.98-.06-73.44-1.16-102.28-3.36-15.78-1.2-26.46-5.34-34.61-13.44-3.02-2.99-11.86-11.79-15.77-40.06-1.31.02-2.72.31-4.19.77,3.63,26.31,11.34,36.72,16.96,42.31,11.57,11.48,26.82,13.87,37.28,14.66,28.43,2.16,61.32,3.27,100.47,3.37h4.66s2.12,0,2.12,0h0c39.15-.1,72.04-1.2,100.47-3.37,10.47-.79,25.72-3.18,37.28-14.66,5.99-5.95,14.34-17.36,17.62-47.63,2.74-25.27,6.14-56.73-1.94-94.72Z"/><path class="cls-10" d="M587.91,709.63v-10.63c5.5-2.64,8.91-6.25,8.91-10.25s-3.4-7.61-8.91-10.25v-38.69h-44.26v38.74c-5.45,2.63-8.82,6.23-8.82,10.2s3.37,7.57,8.82,10.2v10.72c-5.45,2.63-8.82,6.23-8.82,10.2s3.37,7.57,8.82,10.2v38.69h44.26v-38.65c5.5-2.64,8.91-6.25,8.91-10.25s-3.4-7.61-8.91-10.25Z"/><path class="cls-8" d="M590.03,770.9h-48.51v-39.52c-5.7-3.06-8.82-7.11-8.82-11.5s3.12-8.44,8.82-11.5v-8.12c-5.7-3.06-8.82-7.11-8.82-11.5s3.12-8.44,8.82-11.5v-39.56h48.51v39.51c5.76,3.07,8.91,7.14,8.91,11.55s-3.15,8.48-8.91,11.55v8.02c5.76,3.07,8.91,7.14,8.91,11.55s-3.15,8.49-8.91,11.55v39.46ZM545.77,766.65h40.01v-37.86l1.21-.58c4.9-2.35,7.7-5.38,7.7-8.33s-2.81-5.98-7.7-8.33l-1.21-.58v-13.31l1.21-.58c4.9-2.35,7.7-5.38,7.7-8.33s-2.81-5.98-7.7-8.33l-1.21-.58v-37.91h-40.01v37.95l-1.2.58c-4.84,2.34-7.62,5.36-7.62,8.29s2.78,5.95,7.62,8.29l1.2.58v13.39l-1.2.58c-4.84,2.34-7.62,5.36-7.62,8.29s2.78,5.95,7.62,8.29l1.2.58v37.9Z"/><path class="cls-10" d="M543.64,699.09v10.58c-5.45,2.63-8.81,6.24-8.81,10.21,0,8.07,13.88,14.62,30.99,14.62s30.99-6.54,30.99-14.62c0-4.04-3.47-7.69-9.08-10.33v-10.54"/><path class="cls-8" d="M565.82,736.62c-18.57,0-33.12-7.35-33.12-16.74,0-4.4,3.12-8.45,8.81-11.51v-9.28h4.25v11.91l-1.2.58c-4.84,2.34-7.61,5.36-7.61,8.3,0,5.91,11.86,12.49,28.87,12.49s28.87-6.58,28.87-12.49c0-2.99-2.86-6.06-7.86-8.42l-1.22-.57v-11.89h4.25v9.23c5.87,3.08,9.08,7.18,9.08,11.65,0,9.39-14.55,16.74-33.12,16.74Z"/><path class="cls-10" d="M587.91,666.33l-.17,12.09c5.61,2.64,9.08,6.3,9.08,10.33,0,8.07-13.88,14.62-30.99,14.62-8.56,0-16.31-1.64-21.92-4.28-5.61-2.64-9.08-6.3-9.08-10.33s3.36-7.57,8.81-10.21v-28.84"/><path class="cls-8" d="M565.82,705.49c-8.59,0-16.69-1.59-22.82-4.48-6.64-3.13-10.3-7.48-10.3-12.25,0-4.4,3.12-8.45,8.81-11.51v-27.54h4.25v30.18s-1.2.58-1.2.58c-4.84,2.34-7.61,5.36-7.61,8.3s2.86,6.06,7.86,8.41c5.58,2.63,13.04,4.08,21.01,4.08,17.01,0,28.87-6.58,28.87-12.49,0-2.99-2.86-6.06-7.86-8.42l-1.24-.58.19-13.46,4.25.06-.15,10.76c5.86,3.07,9.06,7.17,9.06,11.64,0,9.39-14.55,16.74-33.12,16.74Z"/><path class="cls-5" d="M605.07,792.19c3.83,0,6.73-3.71,5.54-7.35-4.68-14.29-22.71-24.93-44.23-24.93s-39.55,10.64-44.23,24.93c-1.19,3.64,1.71,7.35,5.54,7.35h77.4Z"/><path class="cls-10" d="M458.07,709.63v-10.63c5.5-2.64,8.91-6.25,8.91-10.25s-3.4-7.61-8.91-10.25v-38.69h-44.26v38.74c-5.45,2.63-8.82,6.23-8.82,10.2s3.37,7.57,8.82,10.2v10.72c-5.45,2.63-8.82,6.23-8.82,10.2s3.37,7.57,8.82,10.2v38.69h44.26v-38.65c5.5-2.64,8.91-6.25,8.91-10.25s-3.4-7.61-8.91-10.25Z"/><path class="cls-8" d="M460.2,770.9h-48.51v-39.52c-5.7-3.06-8.82-7.11-8.82-11.5s3.12-8.44,8.82-11.5v-8.12c-5.7-3.06-8.82-7.11-8.82-11.5s3.12-8.44,8.82-11.5v-39.56h48.51v39.51c5.76,3.07,8.91,7.14,8.91,11.55s-3.15,8.48-8.91,11.55v8.02c5.76,3.07,8.91,7.14,8.91,11.55s-3.15,8.49-8.91,11.55v39.46ZM415.94,766.65h40.01v-37.86l1.21-.58c4.9-2.35,7.7-5.38,7.7-8.33s-2.81-5.98-7.7-8.33l-1.21-.58v-13.31l1.21-.58c4.9-2.35,7.7-5.38,7.7-8.33s-2.81-5.98-7.7-8.33l-1.21-.58v-37.91h-40.01v37.95l-1.2.58c-4.84,2.34-7.62,5.36-7.62,8.29s2.78,5.95,7.62,8.29l1.2.58v13.39l-1.2.58c-4.84,2.34-7.62,5.36-7.62,8.29s2.78,5.95,7.62,8.29l1.2.58v37.9Z"/><path class="cls-10" d="M413.81,699.09v10.58c-5.45,2.63-8.81,6.24-8.81,10.21,0,8.07,13.88,14.62,30.99,14.62s30.99-6.54,30.99-14.62c0-4.04-3.47-7.69-9.08-10.33v-10.54"/><path class="cls-8" d="M435.99,736.62c-18.57,0-33.12-7.35-33.12-16.74,0-4.4,3.12-8.45,8.81-11.51v-9.28h4.25v11.91l-1.2.58c-4.84,2.34-7.61,5.36-7.61,8.3,0,5.91,11.86,12.49,28.87,12.49s28.87-6.58,28.87-12.49c0-2.99-2.86-6.06-7.86-8.42l-1.22-.57v-11.89h4.25v9.23c5.87,3.08,9.08,7.18,9.08,11.65,0,9.39-14.55,16.74-33.12,16.74Z"/><path class="cls-10" d="M458.07,666.33l-.17,12.09c5.61,2.64,9.08,6.3,9.08,10.33,0,8.07-13.88,14.62-30.99,14.62-8.56,0-16.31-1.64-21.92-4.28-5.61-2.64-9.08-6.3-9.08-10.33s3.36-7.57,8.81-10.21v-28.84"/><path class="cls-8" d="M435.99,705.49c-8.58,0-16.69-1.59-22.82-4.48-6.64-3.13-10.3-7.48-10.3-12.25,0-4.4,3.12-8.45,8.81-11.51v-27.54h4.25v30.18s-1.2.58-1.2.58c-4.84,2.34-7.61,5.36-7.61,8.3s2.86,6.06,7.86,8.41c5.58,2.63,13.04,4.08,21.01,4.08,17.01,0,28.87-6.58,28.87-12.49,0-2.99-2.86-6.06-7.86-8.42l-1.24-.58.19-13.46,4.25.06-.15,10.76c5.86,3.07,9.06,7.17,9.06,11.64,0,9.39-14.55,16.74-33.12,16.74Z"/><path class="cls-5" d="M474.69,792.19c3.83,0,6.73-3.71,5.54-7.35-4.68-14.29-22.71-24.93-44.23-24.93s-39.55,10.64-44.23,24.93c-1.19,3.64,1.71,7.35,5.54,7.35h77.4Z"/><path class="cls-1" d="M313.1,453.87l.1,41.13c.03,11.96,12.36,21.62,27.55,21.58l30.48,1.64-.24-17.3c-22.4-9.25-41.12-27.62-57.88-47.05Z"/><path class="cls-11" d="M340.48,402.96c-15.19.04-27.48,9.76-27.45,21.71l.07,29.19c16.76,19.43,35.48,37.8,57.88,47.05l-1.4-101.08-29.1,3.13Z"/><path class="cls-8" d="M369.07,515.98l-28.33-1.52h-.08c-13.96,0-25.32-8.72-25.35-19.46l-.09-38.68c-1.43-1.64-2.85-3.28-4.26-4.93l.1,43.61c.03,13.08,13.29,23.7,29.47,23.7h.09l32.75,1.76-.26-18.69c-1.44-.55-2.86-1.14-4.27-1.77l.22,15.97Z"/><path class="cls-8" d="M340.36,400.84c-7.78.04-15.1,2.47-20.63,6.84-5.71,4.51-8.84,10.55-8.82,16.99l.06,26.7c1.4,1.65,2.83,3.29,4.26,4.93l-.07-31.64c-.01-5.12,2.55-9.97,7.21-13.66,4.81-3.81,11.25-5.91,18.12-5.93l27.01-2.9,1.36,97.81c1.41.62,2.83,1.21,4.27,1.77l-1.44-104.3-31.31,3.37Z"/><path class="cls-11" d="M689.87,426.76v-2.09c.03-11.96-12.26-21.68-27.44-21.71l-29.1-3.13-.93,66.81c4.91-2.76,9.81-5.57,14.72-8.41,15.68-8.96,29-20.28,42.76-31.47Z"/><path class="cls-1" d="M647.12,458.23c-4.9,2.84-9.81,5.64-14.72,8.41l-.71,51.57,30.48-1.64c15.19.04,27.52-9.63,27.55-21.58l.16-68.23c-13.76,11.19-27.08,22.51-42.76,31.47Z"/><path class="cls-8" d="M687.75,428.49l-.16,66.49c-.02,10.75-11.39,19.47-25.47,19.47-.02,0-.05,0-.07,0l-28.21,1.52.7-50.55c-1.43.81-2.85,1.61-4.28,2.41l-.73,52.62,32.63-1.76h.09c16.29,0,29.56-10.62,29.59-23.7l.16-69.96c-1.42,1.15-2.84,2.3-4.26,3.46Z"/><path class="cls-8" d="M635.42,402.19l26.78,2.88h.22c6.87.03,13.31,2.13,18.12,5.94,4.66,3.69,7.22,8.54,7.21,13.66v3.82c1.4-1.15,2.82-2.31,4.25-3.46v-.36c.02-6.45-3.12-12.48-8.82-16.99-5.53-4.37-12.85-6.8-20.63-6.84l-31.31-3.37-.97,70.37c1.43-.8,2.85-1.6,4.28-2.41l.88-63.24Z"/><path class="cls-9" d="M419.4,647.72c.93.55,1.87,1.09,2.83,1.63h4.04c-1.84-.92-4.2-1.42-6.87-1.63Z"/><path class="cls-12" d="M658.5,465.29c-2.11-21.97-3.43-35.56-11.61-51.02-1.28,4.23,4.48,10.29,4.48,16.36-4.25,29.73-12.74,61.58-25.48,84.94-12.74,27.61-29.73,76.45-67.95,97.68-41.65,23.8-85.15,40.18-133.96,37.05.41.22.81.45,1.23.67,5.58,2.98,16.48,8.37,31.19,12.57,3.81,1.09,11.89,3.24,22.46,4.71,8.08,1.13,15.37,1.54,21.61,1.59h0c.32.01.67,0,1,0,.33,0,.67,0,1,0h0c6.24-.07,13.53-.48,21.61-1.6,10.57-1.47,18.65-3.62,22.46-4.71,14.7-4.2,25.61-9.59,31.19-12.57,17.07-9.12,28.73-19.43,34.68-25.17,14.52-13.99,22.72-27.39,25.63-32.39,6.39-10.97,10.28-20.8,12.45-27.68,4.66-14.75,5.13-16.5,7.31-43.51,1.5-18.49,2.82-34.85.7-56.95Z"/><path class="cls-9" d="M557.93,613.25c38.22-21.24,55.21-70.08,67.95-97.68,12.74-23.36,21.24-55.21,25.48-84.94,0-6.07-5.76-12.13-4.48-16.36-.21-.4-.41-.8-.63-1.21-3.83-6.98-11.53-20.63-26.95-30.02-12.13-7.39-23.33-8.67-46.53-9.97-19.09-1.07-43.03-1.98-70.83-2h0c-.17,0-.32,0-.49,0s-.32,0-.49,0h0c-27.81.02-51.74.93-70.83,2-23.19,1.3-34.39,2.58-46.53,9.97-15.42,9.39-23.12,23.05-26.95,30.02-8.76,15.97-10.08,29.69-12.24,52.23-2.12,22.1-.8,38.46.7,56.95,2.19,27.01,2.65,28.75,7.31,43.51,2.17,6.88,6.06,16.71,12.45,27.68,2.91,5,11.11,18.39,25.63,32.39,5.25,5.06,14.95,13.68,28.89,21.9,2.67.21,5.03.71,6.87,1.63h-4.04c.57.32,1.16.64,1.74.95,48.81,3.13,92.31-13.26,133.96-37.05Z"/><path class="cls-8" d="M426.2,649.1c-12.58-6.72-24.09-15.07-34.21-24.82-12.58-12.13-20.69-24.06-25.27-31.93-6.6-11.33-10.31-21.07-12.26-27.25-4.55-14.4-5.03-15.91-7.22-43.04-1.51-18.6-2.81-34.66-.7-56.58,2.15-22.34,3.44-35.83,11.99-51.41,3.55-6.47,10.95-19.95,26.19-29.23,11.68-7.12,22.3-8.36,45.54-9.66,23.21-1.3,47-1.98,70.71-2h.97c23.7.02,47.49.69,70.72,2,23.24,1.31,33.86,2.55,45.54,9.67,15.25,9.29,22.64,22.76,26.19,29.23,3.16,5.76,5.32,11.23,6.91,16.96.02-.14.04-.28.06-.42,0-6.37-6.37-12.74-4.25-16.99.14-.86.29-1.75.43-2.63-3.72-6.72-11.75-20.41-27.14-29.78-12.45-7.59-24.04-8.96-47.51-10.28-23.29-1.31-47.16-1.99-70.95-2.01h-.98c-23.78.02-47.65.69-70.95,2.01-23.47,1.32-35.06,2.69-47.51,10.28-16.21,9.88-24.27,24.55-27.71,30.82-8.97,16.35-10.3,30.16-12.5,53.05-2.14,22.29-.82,38.53.7,57.33,2.17,26.84,2.67,29,7.41,43.98,2.02,6.38,5.85,16.44,12.64,28.1,4.72,8.11,13.06,20.39,26,32.85,7.92,7.63,16.67,14.42,26.1,20.28,4.44-.13,8.36.34,11.13,1.73h-8.26c.32.19.62.38.94.57,3.41.31,6.79.52,10.15.64-.97-.49-1.96-.95-2.91-1.46Z"/><path class="cls-8" d="M415.14,647.62c.95.59,1.91,1.16,2.87,1.73h8.26c-2.77-1.39-6.69-1.86-11.13-1.73Z"/><path class="cls-8" d="M660.61,465.09h0c-2.2-22.89-3.52-36.7-12.5-53.05-.17-.32-.37-.67-.57-1.03-.14.88-.28,1.77-.43,2.63-2.12,4.25,4.25,10.62,4.25,16.99-.02.14-.04.28-.06.42,2.71,9.79,3.73,20.36,5.08,34.44h0c2.1,21.93.8,37.98-.7,56.58-2.2,27.14-2.67,28.64-7.22,43.04-1.95,6.18-5.66,15.92-12.26,27.25-4.58,7.87-12.69,19.8-25.27,31.93-10.12,9.75-21.63,18.1-34.21,24.82-9.63,5.14-19.98,9.32-30.77,12.4-7.11,2.03-14.57,3.59-22.17,4.65-7.03.98-14.21,1.51-21.34,1.57h-.52s-.47,0-.47,0h-.28s-.69,0-.69,0c-7.13-.06-14.31-.59-21.34-1.57-7.6-1.06-15.06-2.62-22.17-4.65-9.72-2.78-19.05-6.48-27.86-10.94-3.36-.12-6.74-.33-10.15-.64,1.73,1.01,3.47,1.99,5.24,2.93,9.89,5.29,20.53,9.57,31.6,12.74,7.3,2.08,14.96,3.69,22.75,4.77,6.52.91,13.17,1.44,19.78,1.58v.04h3.11s1.01,0,1.01,0h2.12v-.04c6.62-.14,13.26-.67,19.78-1.58,7.8-1.08,15.45-2.69,22.75-4.77,11.07-3.16,21.71-7.45,31.6-12.74,12.93-6.9,24.75-15.48,35.16-25.51,12.93-12.46,21.28-24.74,26-32.85,6.79-11.66,10.62-21.72,12.64-28.1,4.73-14.97,5.23-17.13,7.41-43.98,1.52-18.8,2.84-35.03.7-57.33Z"/><ellipse class="cls-10" cx="284.92" cy="704.93" rx="13.31" ry="37.6" transform="translate(-176.48 100.6) rotate(-15.35)"/><path class="cls-8" d="M293.53,743.49c-3.92,0-8.16-3.14-12.39-9.22-4.44-6.37-8.38-15.34-11.1-25.25s-3.91-19.63-3.35-27.38c.62-8.6,3.29-13.79,7.72-15,4.42-1.22,9.37,1.88,14.3,8.96,4.44,6.37,8.38,15.34,11.1,25.25h0c2.72,9.91,3.91,19.64,3.35,27.38-.62,8.6-3.29,13.79-7.72,15-.63.17-1.26.26-1.91.26ZM276.28,670.63c-.26,0-.52.03-.76.1-2.42.67-4.14,4.86-4.6,11.22-.53,7.28.61,16.5,3.21,25.95,2.6,9.46,6.32,17.96,10.49,23.95,3.64,5.23,7.26,7.94,9.69,7.29,2.42-.67,4.14-4.86,4.6-11.22.53-7.28-.61-16.49-3.21-25.95-2.6-9.46-6.32-17.96-10.49-23.95-3.28-4.71-6.54-7.39-8.93-7.39Z"/><rect class="cls-9" x="278.98" y="454.34" width="23.07" height="67.85" transform="translate(208.16 -73.89) rotate(22.42)"/><path class="cls-8" d="M289.39,526.8l-25.25-10.41,27.5-66.65,25.25,10.41-27.5,66.65ZM269.68,514.08l17.4,7.18,24.26-58.8-17.4-7.18-24.26,58.8Z"/><circle class="cls-10" cx="298.07" cy="452.71" r="20.94"/><path class="cls-8" d="M298.07,475.78c-12.72,0-23.06-10.35-23.06-23.06s10.35-23.06,23.06-23.06,23.06,10.35,23.06,23.06-10.34,23.06-23.06,23.06ZM298.07,433.9c-10.37,0-18.81,8.44-18.81,18.81s8.44,18.81,18.81,18.81,18.81-8.44,18.81-18.81-8.44-18.81-18.81-18.81Z"/><circle class="cls-10" cx="274.75" cy="658.75" r="26.09"/><path class="cls-8" d="M274.75,686.96c-15.55,0-28.21-12.65-28.21-28.21s12.65-28.21,28.21-28.21,28.21,12.65,28.21,28.21-12.65,28.21-28.21,28.21ZM274.75,634.79c-13.21,0-23.96,10.75-23.96,23.96s10.75,23.96,23.96,23.96,23.96-10.75,23.96-23.96-10.75-23.96-23.96-23.96Z"/><path class="cls-9" d="M303.32,553.46c-2.19-5.04-4.7-9.55-7.51-13.36h-45.98c-9.94,13.52-16.41,35.48-16.41,60.29,0,18.18,3.48,34.82,9.25,47.74,10.66-36.31,32.03-70.58,60.65-94.67Z"/><path class="cls-12" d="M303.32,553.46c-28.62,24.08-49.99,58.36-60.65,94.67,2.1,4.71,4.5,8.94,7.16,12.55h45.98c9.94-13.52,16.41-35.48,16.41-60.29,0-17.8-3.34-34.12-8.9-46.93Z"/><path class="cls-8" d="M235.54,600.38c0-22.86,5.73-44.49,15.38-58.17h43.81c2.6,3.68,4.9,7.96,6.9,12.67,1.12-.96,2.25-1.91,3.39-2.84-2.17-4.92-4.67-9.38-7.48-13.21l-.63-.85h-48.15s-.63.85-.63.85c-10.53,14.32-16.82,37.33-16.82,61.55,0,18.86,3.83,36.96,10.49,50.82.58-2.1,1.2-4.19,1.85-6.27-5.16-12.61-8.09-28.26-8.09-44.55Z"/><path class="cls-8" d="M301.62,554.89c5.41,12.77,8.48,28.8,8.48,45.5,0,22.86-5.73,44.49-15.38,58.16h-43.81c-2.77-3.93-5.2-8.53-7.29-13.61-.65,2.08-1.27,4.17-1.85,6.27,1.89,3.94,4,7.55,6.33,10.72l.63.85h48.15s.63-.85.63-.85c10.53-14.32,16.82-37.33,16.82-61.55,0-17.75-3.39-34.84-9.34-48.34-1.14.93-2.27,1.88-3.39,2.84Z"/><circle class="cls-10" cx="272.82" cy="532.16" r="25.71"/><path class="cls-8" d="M272.82,559.99c-15.35,0-27.83-12.48-27.83-27.83s12.48-27.83,27.83-27.83,27.83,12.49,27.83,27.83-12.48,27.83-27.83,27.83ZM272.82,508.58c-13,0-23.58,10.58-23.58,23.58s10.58,23.58,23.58,23.58,23.58-10.58,23.58-23.58-10.58-23.58-23.58-23.58Z"/><ellipse class="cls-10" cx="247.11" cy="696.35" rx="13.31" ry="37.6" transform="translate(-112.36 50.79) rotate(-9.57)"/><path class="cls-8" d="M252.52,735.62c-9.39,0-17.55-18.49-20.62-36.7-3.2-18.99-1.27-40.06,8.61-41.73,9.89-1.66,18.62,17.61,21.82,36.6h0c1.71,10.13,1.91,19.93.58,27.58-1.49,8.49-4.66,13.39-9.19,14.15-.4.07-.8.1-1.2.1ZM241.69,661.33c-.16,0-.32.01-.47.04-5.21.88-8.51,16.82-5.13,36.84,3.38,20.02,11.73,33.99,16.93,33.12,2.48-.42,4.61-4.41,5.71-10.69,1.26-7.19,1.05-16.47-.58-26.15h0c-3.28-19.42-11.23-33.16-16.46-33.16Z"/><ellipse class="cls-10" cx="318.49" cy="686.74" rx="13.31" ry="37.6" transform="translate(-267.22 207.16) rotate(-25.81)"/><path class="cls-8" d="M332.56,723.22c-3.58,0-7.82-2.35-12.46-6.94-5.52-5.46-11.03-13.57-15.5-22.82-4.47-9.25-7.41-18.6-8.26-26.32-.95-8.57.73-14.16,4.86-16.15,9.03-4.36,22.8,11.7,31.19,29.04h0c4.47,9.25,7.41,18.6,8.26,26.32.95,8.57-.73,14.16-4.86,16.16-1,.49-2.08.73-3.23.73ZM304.45,654.51c-.52,0-.99.1-1.41.3-2.26,1.09-3.19,5.53-2.49,11.86.8,7.25,3.6,16.11,7.87,24.94,4.27,8.83,9.48,16.52,14.67,21.65,4.53,4.48,8.59,6.51,10.85,5.41,2.26-1.09,3.19-5.53,2.49-11.86-.8-7.25-3.6-16.11-7.87-24.94-8.06-16.67-18.69-27.36-24.11-27.36Z"/><ellipse class="cls-10" cx="715.08" cy="704.93" rx="37.6" ry="13.31" transform="translate(-154.03 1207.84) rotate(-74.65)"/><path class="cls-8" d="M706.47,743.49c-.65,0-1.28-.09-1.91-.26-4.42-1.21-7.09-6.4-7.71-15-.56-7.75.63-17.47,3.35-27.38h0c2.72-9.91,6.66-18.88,11.1-25.25,4.93-7.08,9.87-10.18,14.3-8.96,4.42,1.21,7.09,6.4,7.71,15,.56,7.75-.63,17.47-3.35,27.38s-6.66,18.88-11.1,25.25c-4.23,6.08-8.47,9.22-12.39,9.22ZM704.29,701.97c-2.6,9.46-3.74,18.68-3.21,25.95.46,6.36,2.18,10.55,4.6,11.22,2.42.64,6.04-2.06,9.69-7.29,4.17-5.99,7.9-14.5,10.49-23.95s3.74-18.67,3.21-25.95c-.46-6.36-2.18-10.55-4.6-11.22-2.42-.64-6.04,2.06-9.69,7.29-4.17,5.99-7.9,14.5-10.49,23.95h0Z"/><rect class="cls-9" x="697.96" y="454.34" width="23.07" height="67.85" transform="translate(1551.56 669.07) rotate(157.58)"/><path class="cls-8" d="M710.61,526.8l-27.5-66.65,25.25-10.41,27.5,66.65-25.25,10.41ZM688.66,462.45l24.26,58.8,17.4-7.18-24.26-58.8-17.4,7.18Z"/><circle class="cls-10" cx="701.93" cy="452.71" r="20.94"/><path class="cls-8" d="M701.93,475.78c-12.72,0-23.06-10.35-23.06-23.06s10.35-23.06,23.06-23.06,23.06,10.35,23.06,23.06-10.35,23.06-23.06,23.06ZM701.93,433.9c-10.37,0-18.81,8.44-18.81,18.81s8.44,18.81,18.81,18.81,18.81-8.44,18.81-18.81-8.44-18.81-18.81-18.81Z"/><circle class="cls-10" cx="725.25" cy="658.75" r="26.09"/><path class="cls-8" d="M725.25,686.96c-15.55,0-28.21-12.65-28.21-28.21s12.65-28.21,28.21-28.21,28.21,12.65,28.21,28.21-12.65,28.21-28.21,28.21ZM725.25,634.79c-13.21,0-23.96,10.75-23.96,23.96s10.75,23.96,23.96,23.96,23.96-10.75,23.96-23.96-10.75-23.96-23.96-23.96Z"/><path class="cls-12" d="M765.09,580.16c-11.7,31.68-36.94,59.36-64.05,75.73,1.01,1.69,2.05,3.3,3.15,4.79h45.98c9.94-13.52,16.41-35.48,16.41-60.29,0-7.01-.53-13.79-1.5-20.23Z"/><path class="cls-9" d="M765.09,580.16c-2.45-16.32-7.78-30.37-14.91-40.06h-45.98c-9.94,13.52-16.41,35.48-16.41,60.29,0,22.07,5.13,41.88,13.26,55.5,27.1-16.37,52.35-44.05,64.05-75.73Z"/><path class="cls-8" d="M689.9,600.38c0-22.86,5.73-44.49,15.38-58.17h43.81c7.33,10.39,12.39,25.39,14.4,42.03,1.11-2.7,2.13-5.44,3.04-8.2-2.68-14.72-7.75-27.83-14.64-37.21l-.63-.85h-48.15s-.63.85-.63.85c-10.53,14.32-16.82,37.33-16.82,61.55,0,21.6,5.01,42.21,13.56,56.58,1.22-.71,2.43-1.44,3.64-2.19-8.17-13.7-12.96-33.52-12.96-54.39Z"/><path class="cls-8" d="M763.49,584.25c.63,5.25.97,10.66.97,16.14,0,22.86-5.73,44.49-15.38,58.16h-43.81c-.84-1.19-1.64-2.47-2.42-3.77-1.21.76-2.42,1.48-3.64,2.19,1.04,1.74,2.12,3.41,3.26,4.97l.63.85h48.15s.63-.85.63-.85c10.54-14.32,16.83-37.33,16.83-61.55,0-8.36-.77-16.57-2.18-24.34-.91,2.76-1.93,5.5-3.04,8.2Z"/><circle class="cls-10" cx="727.18" cy="532.16" r="25.71"/><path class="cls-8" d="M727.18,559.99c-15.35,0-27.83-12.48-27.83-27.83s12.48-27.83,27.83-27.83,27.83,12.49,27.83,27.83-12.48,27.83-27.83,27.83ZM727.18,508.58c-13,0-23.58,10.58-23.58,23.58s10.58,23.58,23.58,23.58,23.58-10.58,23.58-23.58-10.58-23.58-23.58-23.58Z"/><ellipse class="cls-10" cx="752.89" cy="696.35" rx="37.6" ry="13.31" transform="translate(-58.97 1322.96) rotate(-80.43)"/><path class="cls-8" d="M747.48,735.62c-.4,0-.8-.03-1.2-.1-4.52-.76-7.7-5.66-9.19-14.15-1.34-7.65-1.13-17.45.58-27.58h0c3.2-18.99,11.94-38.26,21.82-36.6,9.89,1.67,11.82,22.75,8.61,41.73-3.07,18.22-11.24,36.7-20.63,36.7ZM741.86,694.49c-1.63,9.67-1.84,18.96-.58,26.15,1.1,6.28,3.23,10.28,5.71,10.69,5.2.92,13.55-13.1,16.93-33.12,3.38-20.02.07-35.96-5.13-36.84-5.18-.87-13.55,13.1-16.93,33.12h0Z"/><ellipse class="cls-10" cx="681.51" cy="686.74" rx="37.6" ry="13.31" transform="translate(-233.44 1001.28) rotate(-64.19)"/><path class="cls-8" d="M667.45,723.22c-1.15,0-2.22-.24-3.23-.73-4.13-2-5.81-7.58-4.86-16.16.85-7.72,3.79-17.07,8.26-26.32h0c8.38-17.33,22.16-33.4,31.19-29.04,4.13,2,5.81,7.58,4.86,16.16-.85,7.72-3.79,17.07-8.26,26.32-4.48,9.25-9.98,17.36-15.5,22.82-4.64,4.59-8.88,6.94-12.46,6.94ZM695.55,654.51c-5.41,0-16.04,10.69-24.11,27.36h0c-4.27,8.83-7.06,17.68-7.87,24.94-.7,6.34.23,10.77,2.49,11.86,2.26,1.1,6.32-.93,10.85-5.41,5.19-5.13,10.4-12.82,14.66-21.65,4.27-8.83,7.06-17.68,7.87-24.94.7-6.34-.23-10.77-2.49-11.86-.42-.2-.89-.3-1.41-.3Z"/><path class="cls-9" d="M631.78,147.09c-3.67-4.58-7.79-9.24-12.41-13.86-28.77-28.76-60.78-38.02-74.45-41.79-17.16-4.73-32.05-6.08-42.68-6.37v-.05c-.25,0-.53.02-.78.02-.25,0-.53-.02-.78-.02v.05c-10.63.3-25.53,1.64-42.69,6.37-13.67,3.77-45.68,13.03-74.45,41.79-24.12,24.11-34.95,49.55-36.84,58.43-8.01,37.67-4.68,68.34-1.9,94.07.19,1.73.39,3.39.61,4.99.79-.15,1.55-.25,2.29-.25,96.83-29.93,233.07-51.11,284.07-143.39Z"/><path class="cls-12" d="M656.21,191.66c-1.53-7.18-8.91-25.2-24.44-44.57-51,92.29-187.24,113.46-284.07,143.39-.73,0-1.5.09-2.29.25,3.51,25.63,10.98,35.96,16.39,41.34,9.99,9.91,22.85,13.06,35.95,14.05,19.5,1.48,51.59,3.28,102.44,3.36h0c.43,0,.84,0,1.27,0,.43,0,.83,0,1.27,0h0c50.85-.09,82.93-1.89,102.44-3.37,13.1-1,25.96-4.14,35.95-14.05,5.75-5.71,13.83-17.01,17-46.33,2.79-25.72,6.11-56.4-1.9-94.07Z"/><path class="cls-8" d="M346.91,285.48c-2.85-26.27-6.07-56.05,1.87-93.37,1.48-6.96,11.32-32.43,36.27-57.37,28.96-28.95,61.33-37.88,73.51-41.24,13.69-3.78,27.88-5.9,42.18-6.3l.51-.03.93.03c14.3.4,28.49,2.52,42.18,6.3,12.19,3.36,44.56,12.3,73.51,41.24,4.81,4.81,9.04,9.63,12.77,14.34.75-1.32,1.49-2.65,2.21-4-3.61-4.47-7.59-8.95-11.98-13.34-29.75-29.74-62.91-38.89-75.39-42.33-13.36-3.69-27.18-5.83-41.13-6.38v-.15l-2.87.06-.78-.02h-2.16v.12c-13.94.55-27.77,2.69-41.13,6.38-12.48,3.44-45.64,12.59-75.39,42.33-22.91,22.91-35.11,48.65-37.42,59.49-8.08,37.99-4.67,69.44-1.93,94.74.2,1.84.42,3.6.65,5.3,1.47-.46,2.87-.75,4.19-.77-.22-1.61-.43-3.27-.62-5.01Z"/><path class="cls-8" d="M658.29,191.22c-1.87-8.77-10.21-27.28-25.44-46.15-.72,1.35-1.45,2.68-2.21,4,15.64,19.73,22.3,37.42,23.49,43.04,7.94,37.32,4.71,67.1,1.86,93.4-3.49,32.25-13.2,41.89-16.39,45.05-8.16,8.1-18.83,12.24-34.61,13.44-28.84,2.2-62.3,3.29-102.28,3.36h-.66s-1.87,0-1.87,0c-39.98-.06-73.44-1.16-102.28-3.36-15.78-1.2-26.46-5.34-34.61-13.44-3.02-2.99-11.86-11.79-15.77-40.06-1.31.02-2.72.31-4.19.77,3.63,26.31,11.34,36.72,16.96,42.31,11.57,11.48,26.82,13.87,37.28,14.66,28.43,2.16,61.32,3.27,100.47,3.37h4.66s2.12,0,2.12,0h0c39.15-.1,72.04-1.2,100.47-3.37,10.47-.79,25.72-3.18,37.28-14.66,5.99-5.95,14.34-17.36,17.62-47.63,2.74-25.27,6.14-56.73-1.94-94.72Z"/><path class="cls-3" d="M619.59,194.75c-6.17-27.14-18.3-30.01-32.8-30.01s-86.79-.19-86.79-.19c0,0-72.28.19-86.79.19s-26.63,2.87-32.8,30.01c-6.17,27.1,5.17,75.21,10.37,94.78,1.36,5.1,5.97,8.64,11.25,8.64h195.95c5.28,0,9.89-3.54,11.25-8.64,5.2-19.57,16.53-67.68,10.37-94.78Z"/><path class="cls-4" d="M527.22,266.95s-10.77,9.91-27.22,9.91c-16.44,0-27.22-9.91-27.22-9.91"/><ellipse class="cls-11" cx="567.77" cy="224.99" rx="15.63" ry="21.9"/><ellipse class="cls-11" cx="439.6" cy="224.99" rx="15.63" ry="21.9"/><ellipse class="cls-9" cx="433.44" cy="219.17" rx="12.39" ry="5.74" transform="translate(131.19 599.36) rotate(-78.34)"/><ellipse class="cls-9" cx="563.11" cy="219.17" rx="12.39" ry="5.74" transform="translate(234.64 726.35) rotate(-78.34)"/><circle class="cls-11" cx="503.32" cy="488.27" r="73.05"/><circle class="cls-9" cx="503.32" cy="488.27" r="37.9"/></svg>