<?xml version="1.0" encoding="UTF-8"?><svg id="Layer_1" xmlns="http://www.w3.org/2000/svg" viewBox="0 0 256 256"><defs><style>.cls-1{fill:#508cb7;}.cls-2{fill:#2c4363;}.cls-3{stroke:#69c0dd;stroke-width:4.89px;}.cls-3,.cls-4,.cls-5,.cls-6{stroke-miterlimit:10;}.cls-3,.cls-7{fill:#243f66;}.cls-4{stroke:#fafcff;stroke-width:3.05px;}.cls-4,.cls-6{fill:none;stroke-linecap:round;}.cls-5{stroke-width:2.77px;}.cls-5,.cls-8{fill:#69c0dd;}.cls-5,.cls-6{stroke:#243f66;}.cls-9{fill:#c9dbee;}.cls-6{stroke-width:5.54px;}.cls-10{fill:#fafcff;}</style></defs><rect class="cls-2" x="-.08" y="-.08" width="256.08" height="256.08"/><line class="cls-6" x1="127.57" y1="83.06" x2="127.57" y2="54.96"/><circle class="cls-5" cx="127.57" cy="44.77" r="10.19"/><path class="cls-8" d="M57.72,158.17l-1.85-29.56-10.88,2.05c-5.72.31-10.11,5.19-9.8,10.91l1.8,33.63c.12,2.23.94,4.25,2.23,5.88,7.03-6.73,13.2-14.62,18.51-22.9Z"/><path class="cls-1" d="M39.21,181.07c2.02,2.55,5.19,4.11,8.68,3.93l11.52.21-1.69-27.04c-5.31,8.28-11.47,16.17-18.51,22.9Z"/><path class="cls-7" d="M38,175.14l-1.8-33.63c-.28-5.15,3.69-9.56,8.84-9.84l9.88-1.85,1.86,29.8c.63-.96,1.25-1.93,1.86-2.9l-1.83-29.32-11.95,2.25c-6.24.37-11.03,5.73-10.69,11.97l1.8,33.63c.13,2.48,1.06,4.72,2.51,6.52.49-.46.99-.93,1.48-1.4-1.13-1.46-1.85-3.26-1.95-5.23Z"/><path class="cls-7" d="M56.79,159.62l1.53,24.55-10.49-.19c-3.18.18-6.07-1.27-7.89-3.61-.49.48-.98.94-1.48,1.4,2.21,2.75,5.65,4.44,9.4,4.24l12.62.23-1.84-29.53c-.61.97-1.23,1.94-1.86,2.9Z"/><path class="cls-1" d="M196.6,185.21l11.52-.21c5.72.31,10.6-4.08,10.91-9.8l1.8-33.63c.31-5.72-4.08-10.6-9.8-10.91l-10.88-2.05-3.54,56.6Z"/><path class="cls-7" d="M195.51,186.24l3.68-58.85,11.95,2.25c6.24.37,11.03,5.73,10.69,11.97l-1.8,33.63c-.33,6.27-5.7,11.09-11.98,10.76l-12.55.23ZM201.07,129.82l-3.4,54.35,10.41-.19c5.2.25,9.63-3.69,9.91-8.84l1.8-33.63c.28-5.15-3.69-9.56-8.84-9.84l-.13-.02-9.75-1.84Z"/><path class="cls-10" d="M190.42,103.38c-1.76-2.2-3.73-4.43-5.94-6.64-13.78-13.77-29.11-18.21-35.66-20.02-8.22-2.27-15.35-2.91-20.45-3.05v-.02c-.12,0-.25,0-.37.01-.12,0-.26,0-.37-.01v.02c-5.09.14-12.23.78-20.45,3.05-6.55,1.81-21.88,6.24-35.66,20.02-11.55,11.55-16.74,23.73-17.65,27.99-3.84,18.04-2.24,32.74-.91,45.06.09.83.19,1.62.29,2.39.38-.07.74-.12,1.1-.12,46.38-14.34,111.63-24.48,136.06-68.68Z"/><path class="cls-9" d="M202.12,124.73c-.73-3.44-4.27-12.07-11.7-21.35-24.43,44.2-89.68,54.35-136.06,68.68-.35,0-.72.04-1.1.12,1.68,12.28,5.26,17.23,7.85,19.8,4.78,4.75,10.94,6.25,17.22,6.73,9.34.71,24.71,1.57,49.07,1.61h0c.21,0,.4,0,.61,0,.21,0,.4,0,.61,0h0c24.35-.04,39.72-.9,49.07-1.61,6.27-.48,12.43-1.98,17.22-6.73,2.75-2.73,6.62-8.15,8.14-22.19,1.33-12.32,2.93-27.02-.91-45.06Z"/><path class="cls-7" d="M53.98,169.66c-1.36-12.58-2.91-26.85.89-44.72.71-3.33,5.42-15.53,17.37-27.48,13.87-13.87,29.37-18.14,35.21-19.75,6.56-1.81,13.35-2.82,20.2-3.02h.24s.44,0,.44,0c6.85.19,13.65,1.21,20.2,3.02,5.84,1.61,21.34,5.89,35.21,19.75,2.3,2.3,4.33,4.61,6.12,6.87.36-.63.71-1.27,1.06-1.92-1.73-2.14-3.64-4.29-5.74-6.39-14.25-14.24-30.13-18.63-36.11-20.28-6.4-1.77-13.02-2.79-19.7-3.06v-.07l-1.37.03h-.37s-1.03,0-1.03,0v.05c-6.68.26-13.3,1.29-19.7,3.06-5.98,1.65-21.86,6.03-36.11,20.28-10.97,10.97-16.82,23.3-17.92,28.5-3.87,18.19-2.24,33.26-.93,45.38.1.88.2,1.72.31,2.54.7-.22,1.38-.36,2.01-.37-.11-.77-.21-1.57-.3-2.4Z"/><path class="cls-7" d="M203.12,124.52c-.89-4.2-4.89-13.07-12.19-22.11-.34.65-.7,1.28-1.06,1.92,7.49,9.45,10.68,17.92,11.25,20.61,3.8,17.88,2.26,32.14.89,44.74-1.67,15.45-6.32,20.06-7.85,21.58-3.91,3.88-9.02,5.86-16.58,6.44-13.81,1.05-29.84,1.58-48.99,1.61h-.32s-.89,0-.89,0c-19.15-.03-35.18-.56-48.99-1.61-7.56-.57-12.67-2.56-16.58-6.44-1.45-1.43-5.68-5.65-7.55-19.19-.63.01-1.3.15-2.01.37,1.74,12.6,5.43,17.59,8.13,20.27,5.54,5.5,12.85,6.64,17.86,7.02,13.62,1.04,29.37,1.56,48.13,1.61h2.23s1.02,0,1.02,0h0c18.75-.05,34.51-.58,48.13-1.61,5.01-.38,12.32-1.52,17.86-7.02,2.87-2.85,6.87-8.31,8.44-22.82,1.31-12.11,2.94-27.17-.93-45.37Z"/><path class="cls-3" d="M184.58,126.21c-2.96-13-8.77-14.37-15.71-14.37s-41.57-.09-41.57-.09c0,0-34.62.09-41.57.09s-12.76,1.38-15.71,14.37c-2.95,12.98,2.48,36.02,4.97,45.4.65,2.44,2.86,4.14,5.39,4.14h93.85c2.53,0,4.74-1.7,5.39-4.14,2.49-9.37,7.92-32.42,4.97-45.4Z"/><path class="cls-4" d="M140.34,160.79s-5.16,4.74-13.04,4.74c-7.88,0-13.04-4.74-13.04-4.74"/><ellipse class="cls-8" cx="159.76" cy="140.69" rx="7.49" ry="10.49"/><ellipse class="cls-8" cx="98.37" cy="140.69" rx="7.49" ry="10.49"/><ellipse class="cls-10" cx="95.42" cy="137.9" rx="5.94" ry="2.75" transform="translate(-58.92 203.48) rotate(-78.34)"/><ellipse class="cls-10" cx="157.53" cy="137.9" rx="5.94" ry="2.75" transform="translate(-9.37 264.31) rotate(-78.34)"/></svg>