<svg width="160" height="26" viewBox="0 0 160 26" fill="none" xmlns="http://www.w3.org/2000/svg">
<path d="M37.0098 25.2241H43.7447L52.8149 1.39534H45.4567L40.3959 15.9698L35.2949 1.39534H27.9343L37.0098 25.2241ZM56.3705 25.2241H63.6049V1.39534H56.3705V25.2241ZM82.5033 0.935542C78.655 0.935542 76.559 3.96187 75.8538 7.90194V1.39534H68.6194V25.2241H75.8538V15.9665C75.8538 11.6582 78.1963 8.54423 82.5436 8.54423C83.078 8.53395 83.6115 8.59524 84.1323 8.72671V1.16544C83.6018 1.00587 83.0534 0.928482 82.5033 0.935542ZM94.965 25.6787C100.023 25.6787 103.788 22.8504 103.788 18.0272C103.788 13.5805 100.568 11.7927 98.4779 11.0608L95.5072 9.86971C94.2539 9.50213 93.9587 8.86115 93.9587 8.29874C93.9587 7.73634 94.3344 6.96937 95.4639 6.96937C96.0921 6.96937 97.1356 7.24602 97.5973 9.07805L103.243 7.56684C102.53 3.59494 99.4385 0.935542 95.1747 0.935542C90.7818 0.935542 86.9768 3.5943 86.9768 8.16301C86.9768 11.2329 88.5252 13.8474 92.1211 15.221L95.298 16.5029C96.4275 16.8705 96.6799 17.5115 96.6799 18.0142C96.6799 19.0227 95.8426 19.5286 94.8387 19.5286C92.9146 19.5286 92.4127 17.9258 92.1205 17.0998L86.4316 18.7967C87.0995 23.4823 90.4861 25.6806 94.965 25.6806V25.6787ZM117.878 0.935542C112.233 0.935542 106.713 5.2906 106.713 13.3545C106.713 21.1918 112.161 25.6819 118.254 25.6819C122.352 25.6819 125.405 23.8499 127.16 21.4211L123.982 17.707C122.532 18.7912 120.804 19.3414 119.05 19.278C116.541 19.278 114.657 18.3161 113.779 16.3899H128.545C130.05 5.10551 123.401 0.933594 117.878 0.933594V0.935542ZM117.961 7.53242C119.802 7.53242 121.689 8.54098 122.185 10.788H113.529C113.86 9.80275 114.468 8.95753 115.264 8.3729C116.06 7.78828 117.004 7.49413 117.962 7.53242H117.961ZM143.344 25.68C145.243 25.6908 147.112 25.1546 148.763 24.1249C150.415 23.0953 151.79 21.6084 152.752 19.8131L147.525 16.0425C146.564 17.3719 145.231 18.5564 143.344 18.5564C140.835 18.5564 138.784 16.4477 138.784 13.2396C138.754 12.564 138.849 11.8886 139.065 11.2548C139.281 10.621 139.612 10.0421 140.039 9.55329C140.466 9.06451 140.979 8.67619 141.547 8.41203C142.115 8.14787 142.727 8.01342 143.344 8.01689C145.225 8.01689 146.564 9.20794 147.525 10.5308L152.752 6.76025C151.796 4.96226 150.421 3.47524 148.768 2.45168C147.114 1.42813 145.242 0.904861 143.344 0.935542C137.488 0.935542 131.676 5.19643 131.676 13.263C131.676 21.4334 137.488 25.6819 143.344 25.6819" fill="white"/>
<path d="M26.3799 22.8541C26.3799 22.3569 26.5145 21.8708 26.7665 21.4574C27.0186 21.044 27.3768 20.7218 27.796 20.5315C28.2152 20.3412 28.6764 20.2915 29.1214 20.3885C29.5664 20.4855 29.9751 20.7249 30.2959 21.0765C30.6167 21.4281 30.8352 21.876 30.9237 22.3636C31.0122 22.8513 30.9668 23.3568 30.7932 23.8161C30.6196 24.2755 30.3255 24.6681 29.9483 24.9443C29.5711 25.2206 29.1276 25.368 28.6739 25.368C28.3726 25.368 28.0743 25.303 27.796 25.1767C27.5177 25.0503 27.2648 24.8651 27.0518 24.6317C26.8388 24.3983 26.6698 24.1211 26.5545 23.8161C26.4393 23.5111 26.3799 23.1842 26.3799 22.8541ZM19.2095 23.0112C19.2095 22.6073 19.3188 22.2124 19.5236 21.8765C19.7284 21.5406 20.0195 21.2789 20.36 21.1243C20.7006 20.9697 21.0753 20.9292 21.4368 21.008C21.7984 21.0869 22.1304 21.2814 22.3911 21.567C22.6517 21.8527 22.8292 22.2166 22.9011 22.6128C22.9731 23.009 22.9361 23.4197 22.7951 23.7929C22.654 24.1661 22.4151 24.4851 22.1087 24.7095C21.8022 24.9339 21.4419 25.0537 21.0732 25.0537C20.8285 25.0537 20.5861 25.0009 20.36 24.8982C20.1339 24.7956 19.9285 24.6451 19.7554 24.4555C19.5823 24.2658 19.4451 24.0407 19.3514 23.7929C19.2577 23.5451 19.2095 23.2795 19.2095 23.0112ZM12.6163 22.8541C12.6163 22.5434 12.7004 22.2397 12.8579 21.9813C13.0154 21.723 13.2393 21.5216 13.5012 21.4027C13.7632 21.2838 14.0514 21.2527 14.3295 21.3133C14.6075 21.3739 14.863 21.5235 15.0634 21.7432C15.2639 21.963 15.4004 22.2429 15.4558 22.5476C15.5111 22.8523 15.4827 23.1682 15.3742 23.4553C15.2657 23.7423 15.082 23.9877 14.8462 24.1603C14.6105 24.3329 14.3333 24.4251 14.0498 24.4251C13.6697 24.4249 13.3052 24.2593 13.0364 23.9647C12.7676 23.6702 12.6165 23.2707 12.6163 22.8541ZM7.16802 23.0112C7.1679 22.7936 7.22668 22.5809 7.33691 22.3999C7.44714 22.2189 7.60388 22.0778 7.7873 21.9944C7.97072 21.911 8.17258 21.8892 8.36735 21.9315C8.56212 21.9739 8.74105 22.0786 8.8815 22.2325C9.02195 22.3863 9.11761 22.5823 9.1564 22.7957C9.19518 23.0092 9.17533 23.2304 9.09937 23.4314C9.02341 23.6325 8.89474 23.8044 8.72965 23.9253C8.56455 24.0462 8.37044 24.1107 8.17187 24.1107C7.90615 24.11 7.65151 23.9939 7.46378 23.7878C7.27605 23.5817 7.17055 23.3025 7.17039 23.0112H7.16802ZM22.9393 13.427C22.9393 12.9298 23.0739 12.4438 23.3259 12.0303C23.578 11.6169 23.9362 11.2947 24.3554 11.1044C24.7746 10.9142 25.2358 10.8644 25.6808 10.9614C26.1258 11.0584 26.5345 11.2978 26.8553 11.6494C27.1761 12.001 27.3946 12.4489 27.4831 12.9366C27.5716 13.4242 27.5262 13.9297 27.3526 14.389C27.1789 14.8484 26.8849 15.241 26.5077 15.5173C26.1305 15.7935 25.687 15.9409 25.2333 15.9409C24.6249 15.9409 24.0414 15.6761 23.6112 15.2046C23.181 14.7332 22.9393 14.0937 22.9393 13.427ZM15.7689 13.5842C15.7689 13.1802 15.8782 12.7853 16.083 12.4494C16.2878 12.1136 16.5789 11.8518 16.9194 11.6972C17.26 11.5426 17.6347 11.5022 17.9962 11.581C18.3578 11.6598 18.6898 11.8543 18.9505 12.1399C19.2111 12.4256 19.3886 12.7895 19.4605 13.1857C19.5324 13.5819 19.4955 13.9926 19.3545 14.3658C19.2134 14.739 18.9745 15.058 18.6681 15.2824C18.3616 15.5068 18.0012 15.6266 17.6326 15.6266C17.1384 15.6266 16.6643 15.4114 16.3148 15.0284C15.9653 14.6454 15.7689 14.1259 15.7689 13.5842ZM9.17395 13.427C9.17395 13.1163 9.25802 12.8126 9.41554 12.5542C9.57305 12.2959 9.79693 12.0945 10.0589 11.9756C10.3208 11.8567 10.609 11.8256 10.8871 11.8862C11.1652 11.9468 11.4206 12.0965 11.6211 12.3162C11.8215 12.5359 11.9581 12.8158 12.0134 13.1205C12.0687 13.4253 12.0403 13.7411 11.9318 14.0282C11.8233 14.3152 11.6396 14.5606 11.4038 14.7332C11.1681 14.9058 10.891 14.998 10.6074 14.998C10.2273 14.9978 9.86278 14.8322 9.59398 14.5377C9.32519 14.2431 9.17411 13.8436 9.17395 13.427ZM3.72564 13.5842C3.72564 13.3666 3.78452 13.1539 3.89482 12.973C4.00513 12.7921 4.16191 12.651 4.34534 12.5678C4.52877 12.4845 4.73061 12.4627 4.92534 12.5052C5.12007 12.5476 5.29893 12.6524 5.43933 12.8063C5.57972 12.9601 5.67533 13.1561 5.71406 13.3695C5.75279 13.5829 5.73291 13.8041 5.65694 14.0052C5.58096 14.2062 5.45229 14.378 5.28721 14.4989C5.12212 14.6198 4.92804 14.6843 4.72949 14.6843C4.46356 14.6838 4.20869 14.5676 4.02081 14.3614C3.83294 14.1551 3.72742 13.8756 3.72742 13.5842H3.72564ZM19.2113 3.99993C19.2108 3.50261 19.345 3.01631 19.5968 2.60256C19.8485 2.1888 20.2066 1.86618 20.6257 1.67551C21.0449 1.48484 21.5062 1.43468 21.9513 1.53139C22.3964 1.62809 22.8054 1.86732 23.1265 2.21879C23.4475 2.57027 23.6662 3.01821 23.7549 3.50593C23.8436 3.99366 23.7983 4.49926 23.6248 4.95877C23.4512 5.41828 23.1572 5.81106 22.7799 6.08741C22.4026 6.36376 21.959 6.51126 21.5052 6.51126C20.8969 6.51126 20.3134 6.2464 19.8832 5.77495C19.453 5.30349 19.2113 4.66407 19.2113 3.99733V3.99993ZM12.0409 4.15449C12.0414 3.75076 12.151 3.35623 12.356 3.02075C12.561 2.68527 12.8521 2.42388 13.1925 2.26962C13.533 2.11535 13.9075 2.07512 14.2688 2.15402C14.6301 2.23291 14.962 2.42738 15.2225 2.71286C15.483 2.99835 15.6604 3.36204 15.7324 3.75799C15.8044 4.15395 15.7677 4.5644 15.6269 4.9375C15.4862 5.3106 15.2477 5.62962 14.9415 5.85424C14.6354 6.07886 14.2754 6.19902 13.907 6.19954C13.4127 6.19954 12.9387 5.98435 12.5892 5.60132C12.2396 5.21829 12.0433 4.69878 12.0433 4.15709L12.0409 4.15449ZM5.44831 3.99993C5.44831 3.68922 5.53238 3.38549 5.6899 3.12715C5.84741 2.8688 6.07129 2.66745 6.33323 2.54855C6.59516 2.42965 6.88339 2.39853 7.16146 2.45915C7.43952 2.51977 7.69495 2.66939 7.89542 2.88909C8.0959 3.10879 8.23243 3.38871 8.28774 3.69345C8.34305 3.99819 8.31466 4.31405 8.20616 4.60111C8.09767 4.88817 7.91393 5.13352 7.6782 5.30614C7.44246 5.47876 7.16531 5.57089 6.8818 5.57089C6.50166 5.57072 6.13714 5.40515 5.86834 5.11058C5.59955 4.816 5.44847 4.41652 5.44831 3.99993ZM1.7499e-07 4.15709C-0.000117044 3.93948 0.0586584 3.72671 0.168892 3.54571C0.279126 3.36471 0.435865 3.22361 0.619285 3.14024C0.802706 3.05687 1.00457 3.035 1.19933 3.07737C1.3941 3.11975 1.57303 3.22447 1.71348 3.3783C1.85393 3.53213 1.94959 3.72816 1.98838 3.94158C2.02716 4.155 2.00731 4.37623 1.93135 4.57729C1.85539 4.77835 1.72672 4.95021 1.56163 5.07112C1.39653 5.19203 1.20242 5.25657 1.00385 5.25657C0.737719 5.25657 0.482474 5.14075 0.294232 4.93458C0.10599 4.72841 0.00015728 4.44875 1.7499e-07 4.15709Z" fill="white"/>
<path d="M157.093 1.89693H156.56V3.96471H155.954V1.89693H155.412V1.29102H157.105L157.093 1.89693Z" fill="white"/>
<path d="M157.31 1.29102H157.973L158.658 3.13864L159.34 1.3066H160V3.96471H159.395V2.5574H159.378L158.882 3.96536H158.437L157.932 2.5574H157.915V3.96471H157.31V1.29102Z" fill="white"/>
</svg>
